<svg width="340" height="340" viewBox="0 0 340 340" fill="none" xmlns="http://www.w3.org/2000/svg">
    <path d="M340 260.032H0V260.202H340V260.032Z" fill="#EBEBEB" />
    <path d="M264.146 265.139H241.624V265.309H264.146V265.139Z" fill="#EBEBEB" />
    <path d="M205.36 270.892H175.42V271.062H205.36V270.892Z" fill="#EBEBEB" />
    <path d="M295.283 271.449H264.833V271.619H295.283V271.449Z" fill="#EBEBEB" />
    <path d="M65.8784 264.969H36.5092V265.139H65.8784V264.969Z" fill="#EBEBEB" />
    <path d="M76.2417 264.969H71.9373V265.139H76.2417V264.969Z" fill="#EBEBEB" />
    <path d="M153.938 267.838H90.236V268.008H153.938V267.838Z" fill="#EBEBEB" />
    <path
        d="M161.16 229.704H29.8588C28.8302 229.702 27.8443 229.292 27.1176 228.564C26.3909 227.836 25.9828 226.85 25.9828 225.821V41.2487C25.9917 40.226 26.4038 39.2481 27.1296 38.5275C27.8553 37.8069 28.836 37.4017 29.8588 37.3999H161.16C162.19 37.3999 163.177 37.809 163.906 38.5371C164.634 39.2653 165.043 40.2529 165.043 41.2827V225.821C165.043 226.851 164.634 227.839 163.906 228.567C163.177 229.295 162.19 229.704 161.16 229.704ZM29.8588 37.5359C28.8753 37.5377 27.9327 37.9297 27.2378 38.6258C26.543 39.3218 26.1528 40.2652 26.1528 41.2487V225.821C26.1528 226.805 26.543 227.748 27.2378 228.444C27.9327 229.14 28.8753 229.532 29.8588 229.534H161.16C162.144 229.532 163.087 229.14 163.783 228.444C164.479 227.749 164.871 226.805 164.873 225.821V41.2487C164.871 40.2646 164.479 39.3212 163.783 38.6253C163.087 37.9294 162.144 37.5377 161.16 37.5359H29.8588Z"
        fill="#EBEBEB" />
    <path
        d="M308.251 229.704H176.943C175.914 229.702 174.927 229.292 174.199 228.565C173.472 227.837 173.062 226.85 173.06 225.821V41.2487C173.071 40.2254 173.484 39.2475 174.211 38.5271C174.938 37.8066 175.919 37.4016 176.943 37.3999H308.251C309.272 37.4034 310.251 37.8094 310.976 38.5299C311.7 39.2503 312.111 40.2272 312.12 41.2487V225.821C312.12 226.849 311.713 227.834 310.988 228.562C310.262 229.29 309.278 229.7 308.251 229.704ZM176.943 37.5359C175.959 37.5377 175.015 37.9294 174.319 38.6253C173.624 39.3212 173.232 40.2646 173.23 41.2487V225.821C173.232 226.805 173.624 227.749 174.319 228.444C175.015 229.14 175.959 229.532 176.943 229.534H308.251C309.235 229.532 310.178 229.14 310.874 228.444C311.57 227.749 311.962 226.805 311.964 225.821V41.2487C311.962 40.2646 311.57 39.3212 310.874 38.6253C310.178 37.9294 309.235 37.5377 308.251 37.5359H176.943Z"
        fill="#EBEBEB" />
    <path d="M232.37 170.667H295.922V53.8221L232.37 53.8221V170.667Z" fill="#E6E6E6" />
    <path d="M225.121 170.667H294.188V53.8221L225.121 53.8221V170.667Z" fill="#F0F0F0" />
    <path d="M288.408 164.873V59.6021H230.914V164.873H288.408Z" fill="white" />
    <path d="M86.5572 58.5479H36.5092V116.715H86.5572V58.5479Z" fill="#E0E0E0" />
    <path d="M89.5492 58.5479H38.2024V116.715H89.5492V58.5479Z" fill="#F5F5F5" />
    <path d="M85.2448 112.132V63.1309H42.5V112.132H85.2448Z" fill="white" />
    <path d="M156.76 92.5005H106.712V150.668H156.76V92.5005Z" fill="#E0E0E0" />
    <path d="M159.752 92.5005H108.406V150.668H159.752V92.5005Z" fill="#F5F5F5" />
    <path d="M155.448 146.091V97.0903H112.703V146.091H155.448Z" fill="white" />
    <path
        d="M128.146 199.111C127.806 199.111 127.466 199.111 127.112 199.145C124.943 199.3 122.834 199.933 120.938 200.998C119.041 202.063 117.404 203.535 116.142 205.306C114.88 207.078 114.026 209.107 113.639 211.247C113.253 213.388 113.344 215.587 113.907 217.688C115.518 223.96 116.296 230.417 116.219 236.892V255.755C116.219 256.08 116.283 256.403 116.408 256.704C116.533 257.004 116.716 257.278 116.946 257.507C117.177 257.737 117.45 257.92 117.752 258.044C118.053 258.168 118.375 258.231 118.701 258.23H178.541V199.111H128.146Z"
        fill="#F0F0F0" />
    <path
        d="M193.304 213.86C193.218 210.092 191.693 206.501 189.042 203.823C186.391 201.144 182.815 199.583 179.049 199.46C175.282 199.336 171.611 200.659 168.79 203.158C165.969 205.657 164.212 209.141 163.88 212.894C163.778 214.51 163.939 216.131 164.356 217.695C165.964 223.967 166.741 230.424 166.668 236.898V255.761C166.668 256.418 166.929 257.048 167.393 257.512C167.857 257.976 168.487 258.237 169.143 258.237H188.047C188.704 258.237 189.333 257.976 189.797 257.512C190.262 257.048 190.522 256.418 190.522 255.761V235.797C190.467 229.721 191.235 223.666 192.807 217.797C193.149 216.513 193.316 215.189 193.304 213.86Z"
        fill="#F5F5F5" />
    <path d="M158.243 222.339H104.509V258.237H158.243V222.339Z" fill="#F0F0F0" />
    <path
        d="M111.316 171.496H61.7168C55.5492 171.496 51.3604 176.494 52.36 182.655L60.0984 230.452H132.022L124.284 182.655C123.284 176.494 117.477 171.496 111.316 171.496Z"
        fill="#EBEBEB" />
    <path
        d="M125.902 171.496H75.2284C69.36 171.496 65.3752 176.256 66.3272 182.118L74.154 230.452H146.071L138.244 182.118C137.292 176.256 131.77 171.496 125.902 171.496Z"
        fill="#F5F5F5" />
    <path
        d="M108.025 219.062H157.556C158.414 219.062 159.238 219.403 159.845 220.01C160.452 220.617 160.793 221.44 160.793 222.299V230.459C160.793 231.317 160.452 232.141 159.845 232.748C159.238 233.355 158.414 233.696 157.556 233.696H108.025C107.769 233.696 107.523 233.594 107.342 233.413C107.161 233.232 107.059 232.986 107.059 232.73V220.028C107.059 219.772 107.161 219.526 107.342 219.345C107.523 219.164 107.769 219.062 108.025 219.062Z"
        fill="#EBEBEB" />
    <path
        d="M54.8012 199.111C54.4612 199.111 54.1212 199.111 53.7676 199.145C50.2198 199.413 46.8873 200.95 44.3808 203.476C41.8743 206.001 40.3617 209.345 40.12 212.894C40.0179 214.51 40.1787 216.131 40.596 217.695C42.2074 223.967 42.9848 230.424 42.908 236.898V255.762C42.908 256.418 43.1688 257.048 43.633 257.512C44.0972 257.976 44.7267 258.237 45.3832 258.237H105.223V199.111H54.8012Z"
        fill="#F0F0F0" />
    <path
        d="M119.959 213.86C119.956 211.762 119.506 209.689 118.639 207.778C117.771 205.868 116.505 204.165 114.927 202.784C113.348 201.402 111.493 200.373 109.485 199.765C107.477 199.158 105.362 198.986 103.282 199.261C101.203 199.536 99.2054 200.252 97.4244 201.361C95.6435 202.47 94.1197 203.946 92.9549 205.691C91.7901 207.436 91.0112 209.41 90.6701 211.48C90.3291 213.55 90.4337 215.669 90.9772 217.695C92.5852 223.967 93.3626 230.424 93.2892 236.898V255.761C93.2892 256.418 93.55 257.047 94.0142 257.512C94.4784 257.976 95.1079 258.237 95.7644 258.237H114.668C115.325 258.237 115.954 257.976 116.419 257.512C116.883 257.047 117.144 256.418 117.144 255.761V235.797C117.089 229.722 117.855 223.667 119.422 217.797C119.781 216.516 119.961 215.191 119.959 213.86Z"
        fill="#F5F5F5" />
    <path
        d="M177.48 260.032H55.8553C55.3791 260.032 54.9225 259.843 54.5859 259.506C54.2492 259.17 54.0601 258.713 54.0601 258.237H179.302C179.302 258.475 179.255 258.711 179.163 258.93C179.071 259.15 178.937 259.349 178.767 259.516C178.597 259.683 178.396 259.815 178.175 259.903C177.954 259.992 177.718 260.036 177.48 260.032Z"
        fill="#E0E0E0" />
    <path d="M308.543 232.363H279.276V234.763H308.543V232.363Z" fill="#E6E6E6" />
    <path d="M224.074 260.032H229.48V204.768H224.074V260.032Z" fill="#E6E6E6" />
    <path d="M205.36 234.77H279.276V232.37H205.36V234.77Z" fill="#F5F5F5" />
    <path d="M308.543 245.507H279.276V247.908H308.543V245.507Z" fill="#E6E6E6" />
    <path d="M205.36 247.908H279.276V245.507H205.36V247.908Z" fill="#F5F5F5" />
    <path d="M308.543 206.081H279.276V208.481H308.543V206.081Z" fill="#E6E6E6" />
    <path d="M205.36 208.488H279.276V206.087H205.36V208.488Z" fill="#F5F5F5" />
    <path d="M308.543 219.225H279.276V221.625H308.543V219.225Z" fill="#E6E6E6" />
    <path d="M205.36 221.625H279.276V219.225H205.36V221.625Z" fill="#F5F5F5" />
    <path d="M297.989 260.032H303.396V204.768H297.989V260.032Z" fill="#E6E6E6" />
    <path d="M273.87 260.032H279.276V204.768H273.87V260.032Z" fill="#F5F5F5" />
    <path d="M205.36 260.032H210.766V204.768H205.36V260.032Z" fill="#F5F5F5" />
    <path d="M258.522 204.122H261.412V171.897H258.522V204.122Z" fill="#E6E6E6" />
    <path d="M258.896 204.095H259.712V171.87H258.896V204.095Z" fill="#F0F0F0" />
    <path
        d="M249.261 206.081H270.64C270.64 205.359 270.353 204.668 269.843 204.158C269.333 203.647 268.641 203.361 267.92 203.361H251.96C251.239 203.361 250.547 203.647 250.037 204.158C249.527 204.668 249.24 205.359 249.24 206.081H249.261Z"
        fill="#F0F0F0" />
    <path
        d="M255.143 205.285H256.224C256.385 205.285 256.516 205.154 256.516 204.993V202.742C256.516 202.58 256.385 202.45 256.224 202.45H255.143C254.981 202.45 254.85 202.58 254.85 202.742V204.993C254.85 205.154 254.981 205.285 255.143 205.285Z"
        fill="#F0F0F0" />
    <path
        d="M247.024 179.52H272.911L270.436 158.875C270.298 157.709 269.737 156.634 268.86 155.853C267.983 155.073 266.85 154.641 265.676 154.639H254.272C253.099 154.643 251.968 155.077 251.091 155.857C250.215 156.637 249.653 157.71 249.512 158.875L247.024 179.52Z"
        fill="#F5F5F5" />
    <path
        d="M170 290.741C242.816 290.741 301.845 287.295 301.845 283.043C301.845 278.792 242.816 275.346 170 275.346C97.1839 275.346 38.1548 278.792 38.1548 283.043C38.1548 287.295 97.1839 290.741 170 290.741Z"
        fill="#F5F5F5" />
    <path
        d="M201.083 110.411L200.845 111.214L200.627 111.894C200.478 112.349 200.314 112.771 200.151 113.206C199.825 114.056 199.471 114.886 199.084 115.708C198.329 117.345 197.478 118.934 196.534 120.468C196.064 121.237 195.568 121.978 195.065 122.719C194.562 123.46 194.024 124.174 193.46 124.875C192.353 126.291 191.166 127.642 189.904 128.921L189.638 129.193C189.273 129.568 188.839 129.87 188.36 130.084C186.943 130.703 185.403 130.99 183.858 130.92C182.513 130.847 181.192 130.536 179.955 130.002C178.919 129.564 177.939 129.002 177.038 128.329C176.229 127.739 175.463 127.091 174.746 126.391C173.444 125.087 172.269 123.662 171.238 122.134C170.734 121.4 170.272 120.645 169.83 119.884C169.388 119.122 169.007 118.36 168.592 117.483C168.322 116.912 168.259 116.264 168.414 115.651C168.57 115.038 168.934 114.498 169.444 114.125C169.955 113.751 170.579 113.567 171.211 113.604C171.842 113.641 172.441 113.897 172.904 114.328L173.08 114.491L174.74 116.014C175.304 116.531 175.882 117.028 176.46 117.504C177.554 118.432 178.713 119.282 179.928 120.047C180.878 120.68 181.932 121.141 183.042 121.407C183.325 121.486 183.624 121.486 183.906 121.407C183.999 121.365 184.076 121.293 184.124 121.203L182.56 122.386C183.423 121.216 184.26 120.033 185.028 118.809C185.796 117.585 186.531 116.32 187.218 115.049C187.904 113.777 188.537 112.465 189.122 111.152C189.421 110.472 189.686 109.833 189.958 109.18L190.638 107.399L190.828 106.909C191.371 105.655 192.366 104.651 193.615 104.097C194.865 103.543 196.277 103.479 197.571 103.919C198.865 104.359 199.946 105.269 200.599 106.47C201.252 107.67 201.43 109.072 201.096 110.398L201.083 110.411Z"
        fill="#263238" />
    <path
        d="M170.517 117.517L165.92 115.919L164.954 109.623C164.954 109.623 172.659 111.663 172.625 115.375L170.517 117.517Z"
        fill="#CE7A63" />
    <path
        d="M197.594 84.7143C194.596 83.6603 190.454 80.0699 192.08 75.4255C193.317 71.9031 197.9 71.5903 199.702 72.6443C201.504 73.6983 201.579 71.5359 203.884 70.7063C206.19 69.8767 207.815 71.9643 208.984 73.0591C210.154 74.1539 211.521 73.3243 213.255 73.3991C214.989 73.4739 216.226 75.7451 215.261 77.4043C213.561 80.3147 216.369 82.1643 214.241 84.4355C211.106 87.7335 213.561 90.9703 209.141 94.2547C206.455 96.2675 198.825 92.5751 197.594 84.7143Z"
        fill="#263238" />
    <path
        d="M197.54 87.7881C197.428 87.8547 197.302 87.8943 197.173 87.9037C196.947 87.9226 196.724 87.8518 196.551 87.7066C196.377 87.5614 196.269 87.3536 196.248 87.1285C196.098 85.779 196.275 84.4133 196.762 83.146C197.25 81.8788 198.034 80.747 199.049 79.8457C199.137 79.7757 199.238 79.724 199.347 79.6936C199.455 79.6632 199.568 79.6547 199.679 79.6686C199.791 79.6826 199.898 79.7186 199.996 79.7747C200.093 79.8308 200.178 79.9058 200.246 79.9953C200.316 80.0828 200.368 80.1831 200.399 80.2906C200.43 80.3982 200.439 80.5108 200.427 80.622C200.414 80.7332 200.38 80.8408 200.325 80.9386C200.271 81.0365 200.198 81.1226 200.11 81.1921C199.316 81.9151 198.706 82.8175 198.331 83.8241C197.956 84.8307 197.827 85.9124 197.955 86.9789C197.968 87.1391 197.937 87.3 197.863 87.4431C197.79 87.5862 197.678 87.7058 197.54 87.7881Z"
        fill="#263238" />
    <path
        d="M192.651 103.612C192.651 103.612 186.619 119.048 192.345 147.812H219.688C219.878 143.616 217.24 123.141 221.286 103.367C218.263 102.786 215.205 102.399 212.133 102.211C208.262 101.986 204.382 101.986 200.512 102.211C197.859 102.471 195.23 102.939 192.651 103.612Z"
        fill="white" />
    <path
        d="M210.984 89.0801C210.249 92.8201 209.522 99.6745 212.133 102.17C212.133 102.17 207.754 105.72 203.15 109.31C202.133 108.448 201.355 107.337 200.893 106.087C200.431 104.836 200.299 103.487 200.512 102.17C204.68 101.177 204.592 98.0901 203.85 95.1729L210.984 89.0801Z"
        fill="#CE7A63" />
    <path opacity="0.2"
        d="M208.08 91.5889L203.857 95.1929C204.037 95.8609 204.158 96.5435 204.218 97.2329C205.578 98.5249 207.998 95.2541 208.168 93.5881C208.258 92.9217 208.228 92.2447 208.08 91.5889Z"
        fill="black" />
    <path
        d="M210.936 82.7898C211.126 87.8626 211.494 90.8206 209.209 93.6698C205.761 97.9402 199.315 96.247 197.615 91.3306C196.085 86.9106 196.03 79.3626 200.77 76.8738C201.81 76.3196 202.974 76.0403 204.152 76.0622C205.33 76.0842 206.483 76.4068 207.501 76.9995C208.52 77.5921 209.37 78.4351 209.971 79.4485C210.572 80.4619 210.904 81.612 210.936 82.7898Z"
        fill="#CE7A63" />
    <path
        d="M210.8 87.4817C209.406 90.2017 207.801 81.5997 208.209 80.1649C203.279 81.5249 195.718 81.0761 196.302 77.6353C196.982 73.7525 201.498 73.6029 206.502 74.0789C214.764 74.8745 212.31 84.5305 210.8 87.4817Z"
        fill="#263238" />
    <path
        d="M208.359 87.9648C208.23 87.9721 208.102 87.9488 207.985 87.8968C207.882 87.8517 207.788 87.7868 207.71 87.7057C207.632 87.6245 207.571 87.5288 207.53 87.424C207.489 87.3192 207.469 87.2073 207.471 87.0947C207.473 86.9821 207.498 86.8711 207.543 86.768C208.057 85.5119 208.865 84.3976 209.899 83.5185C210.934 82.6393 212.163 82.0211 213.486 81.7156C213.707 81.6759 213.934 81.725 214.119 81.8524C214.304 81.9798 214.431 82.1751 214.472 82.3956C214.508 82.616 214.457 82.8418 214.331 83.0256C214.204 83.2095 214.011 83.3371 213.792 83.3816C212.745 83.6404 211.776 84.1457 210.964 84.8555C210.153 85.5652 209.523 86.4588 209.127 87.4616C209.062 87.6113 208.955 87.7387 208.818 87.8281C208.682 87.9175 208.522 87.965 208.359 87.9648Z"
        fill="#263238" />
    <path
        d="M213.466 86.3599C213.197 87.5816 212.491 88.6628 211.48 89.3995C210.154 90.3243 209.107 89.1887 209.141 87.5907C209.175 86.1559 209.909 83.9527 211.391 83.6671C212.874 83.3815 213.799 84.8571 213.466 86.3599Z"
        fill="#CE7A63" />
    <path
        d="M189.57 276.331C188.938 276.488 188.306 276.549 188.034 276.331C187.964 276.267 187.916 276.183 187.897 276.09C187.877 275.998 187.887 275.901 187.925 275.815C187.948 275.737 187.987 275.664 188.04 275.602C188.092 275.54 188.157 275.49 188.231 275.454C188.999 275.026 190.951 275.583 191.039 275.611C191.064 275.617 191.086 275.631 191.102 275.652C191.118 275.672 191.127 275.697 191.127 275.723C191.127 275.749 191.118 275.774 191.102 275.794C191.086 275.814 191.064 275.829 191.039 275.835C190.565 276.042 190.073 276.209 189.57 276.331ZM188.564 275.563C188.488 275.581 188.415 275.608 188.346 275.645C188.302 275.666 188.262 275.697 188.229 275.734C188.196 275.771 188.171 275.815 188.156 275.862C188.102 276.032 188.156 276.093 188.19 276.127C188.496 276.393 189.747 276.093 190.638 275.733C189.964 275.543 189.26 275.486 188.564 275.563Z"
        fill="#263238" />
    <path
        d="M191.032 275.821H190.985C190.305 275.706 188.89 274.924 188.85 274.339C188.85 274.203 188.897 274.012 189.21 273.904C189.433 273.827 189.678 273.842 189.89 273.944C190.638 274.305 191.08 275.611 191.1 275.665C191.112 275.683 191.118 275.704 191.118 275.726C191.118 275.748 191.112 275.769 191.1 275.787C191.082 275.805 191.058 275.817 191.032 275.821ZM189.36 274.108H189.292C189.081 274.176 189.088 274.264 189.094 274.291C189.094 274.645 190.114 275.284 190.808 275.502C190.622 274.955 190.27 274.479 189.802 274.142C189.662 274.081 189.507 274.069 189.36 274.108Z"
        fill="#263238" />
    <path d="M198.465 277.44L193.344 278.195L193.508 266.458L198.628 265.71L198.465 277.44Z"
        fill="#CE7A63" />
    <path
        d="M192.576 275.162H199.288C199.386 275.159 199.483 275.193 199.558 275.257C199.633 275.321 199.682 275.411 199.696 275.509L200.376 280.031C200.389 280.144 200.378 280.259 200.344 280.368C200.31 280.477 200.253 280.577 200.177 280.663C200.101 280.748 200.008 280.817 199.904 280.864C199.8 280.91 199.687 280.935 199.573 280.935C197.567 280.901 194.684 280.785 192.161 280.785C189.217 280.785 186.572 280.942 183.117 280.942C181.03 280.942 180.642 278.963 181.506 278.643C185.368 277.195 187.435 276.95 191.345 275.556C191.731 275.357 192.147 275.224 192.576 275.162Z"
        fill="#263238" />
    <path opacity="0.2"
        d="M193.508 266.465L193.419 272.51L198.546 271.755L198.635 265.71L193.508 266.465Z"
        fill="black" />
    <path
        d="M195.84 275.523C195.806 273.353 196.486 269.865 191.08 272C187.857 273.265 192.229 276.985 192.229 276.985L195.84 275.523Z"
        fill="#263238" />
    <path
        d="M192.345 147.791C192.345 147.791 189.625 188.978 190.393 203.626C191.141 217.504 191.563 256.876 191.658 267.206C191.662 267.52 191.732 267.829 191.865 268.114C191.998 268.399 192.189 268.652 192.427 268.857C192.665 269.062 192.944 269.215 193.245 269.304C193.546 269.393 193.863 269.417 194.174 269.375L197.792 268.885C198.274 268.819 198.722 268.597 199.066 268.252C199.41 267.906 199.631 267.458 199.696 266.974C202.035 248.744 204.816 220.619 205.421 205.564C206.101 188.38 210.331 147.764 210.331 147.764L192.345 147.791Z"
        fill="#57C7DF" />
    <path opacity="0.2"
        d="M192.345 147.791C192.345 147.791 189.625 188.978 190.393 203.626C191.141 217.504 191.563 256.876 191.658 267.206C191.662 267.52 191.732 267.829 191.865 268.114C191.998 268.399 192.189 268.652 192.427 268.857C192.665 269.062 192.944 269.215 193.245 269.304C193.546 269.393 193.863 269.417 194.174 269.375L197.792 268.885C198.274 268.819 198.722 268.597 199.066 268.252C199.41 267.906 199.631 267.458 199.696 266.974C202.035 248.744 204.816 220.619 205.421 205.564C206.101 188.38 210.331 147.764 210.331 147.764L192.345 147.791Z"
        fill="white" />
    <path
        d="M226.481 275.658C225.889 275.924 225.277 276.1 224.964 275.917C224.885 275.868 224.822 275.794 224.787 275.707C224.752 275.621 224.745 275.525 224.767 275.434C224.775 275.352 224.8 275.272 224.841 275.2C224.882 275.129 224.938 275.067 225.005 275.019C225.685 274.462 227.725 274.665 227.793 274.672C227.818 274.674 227.842 274.684 227.861 274.699C227.881 274.715 227.895 274.737 227.902 274.761C227.907 274.785 227.905 274.809 227.897 274.832C227.888 274.855 227.874 274.875 227.854 274.89C227.42 275.186 226.961 275.444 226.481 275.658ZM225.352 275.08C225.282 275.114 225.216 275.155 225.155 275.203C225.113 275.231 225.078 275.268 225.052 275.312C225.026 275.355 225.01 275.404 225.005 275.454C225.005 275.624 225.046 275.686 225.087 275.706C225.434 275.917 226.61 275.393 227.426 274.89C226.729 274.819 226.025 274.884 225.352 275.08Z"
        fill="#263238" />
    <path
        d="M227.8 274.903C227.12 274.903 225.583 274.393 225.44 273.822C225.406 273.693 225.44 273.496 225.719 273.333C225.821 273.273 225.934 273.236 226.051 273.221C226.168 273.207 226.286 273.217 226.399 273.251C227.202 273.475 227.875 274.672 227.902 274.727C227.912 274.745 227.917 274.766 227.917 274.788C227.917 274.809 227.912 274.83 227.902 274.849C227.889 274.864 227.874 274.877 227.856 274.886C227.839 274.896 227.82 274.902 227.8 274.903ZM225.848 273.543H225.787C225.597 273.652 225.617 273.734 225.624 273.761C225.712 274.101 226.807 274.557 227.528 274.652C227.25 274.143 226.819 273.734 226.297 273.482C226.157 273.445 226.008 273.457 225.876 273.516L225.848 273.543Z"
        fill="#263238" />
    <path d="M235.729 275.203L230.901 276.842L227.698 265.492L232.519 263.854L235.729 275.203Z"
        fill="#CE7A63" />
    <path opacity="0.2"
        d="M205.034 162.52C203.626 168.157 204 191.583 205.455 204.789C205.802 197.057 206.781 185.137 207.774 174.189L205.034 162.52Z"
        fill="black" />
    <path
        d="M229.044 274.087L235.654 272.897C235.753 272.878 235.855 272.894 235.944 272.942C236.032 272.991 236.1 273.069 236.137 273.163L237.871 277.447C237.913 277.551 237.931 277.663 237.924 277.775C237.918 277.887 237.885 277.996 237.831 278.094C237.776 278.192 237.699 278.276 237.608 278.341C237.516 278.405 237.41 278.448 237.3 278.467C235.321 278.793 232.451 279.187 229.969 279.636C227.072 280.16 227.052 280.316 223.652 280.942C221.612 281.316 220.735 279.459 221.503 278.99C224.958 276.896 224.393 276.753 227.902 274.699C228.244 274.43 228.631 274.223 229.044 274.087Z"
        fill="#263238" />
    <path opacity="0.2"
        d="M227.698 265.499L229.35 271.347L234.178 269.708L232.526 263.86L227.698 265.499Z"
        fill="black" />
    <path
        d="M202.048 147.791C202.048 147.791 205.571 188.985 208.284 203.626C210.895 217.715 222.707 257.849 226.188 266.968C226.391 267.5 226.791 267.934 227.305 268.178C227.82 268.423 228.409 268.459 228.949 268.28L232.438 267.144C232.95 266.977 233.384 266.629 233.658 266.164C233.932 265.7 234.028 265.151 233.927 264.622C230.459 246.717 224.937 220.551 223.564 205.564C221.993 188.38 219.688 147.764 219.688 147.764L202.048 147.791Z"
        fill="#57C7DF" />
    <path opacity="0.2"
        d="M202.048 147.791C202.048 147.791 205.571 188.985 208.284 203.626C210.895 217.715 222.707 257.849 226.188 266.968C226.391 267.5 226.791 267.934 227.305 268.178C227.82 268.423 228.409 268.459 228.949 268.28L232.438 267.144C232.95 266.977 233.384 266.629 233.658 266.164C233.932 265.7 234.028 265.151 233.927 264.622C230.459 246.717 224.937 220.551 223.564 205.564C221.993 188.38 219.688 147.764 219.688 147.764L202.048 147.791Z"
        fill="white" />
    <path
        d="M203.436 84.9523C203.476 85.3671 203.293 85.7207 203.021 85.7479C202.749 85.7751 202.504 85.4623 202.463 85.0679C202.422 84.6735 202.606 84.3063 202.878 84.2791C203.15 84.2519 203.395 84.5443 203.436 84.9523Z"
        fill="#263238" />
    <path
        d="M198.798 85.4146C198.839 85.8226 198.655 86.1762 198.383 86.2034C198.111 86.2306 197.866 85.9178 197.826 85.5234C197.785 85.129 197.968 84.755 198.24 84.7278C198.512 84.7006 198.757 84.9998 198.798 85.4146Z"
        fill="#263238" />
    <path
        d="M200.294 85.4692C199.928 86.7732 199.383 88.0203 198.676 89.1752C198.976 89.3474 199.311 89.4518 199.656 89.4812C200.002 89.5106 200.349 89.4642 200.675 89.3452L200.294 85.4692Z"
        fill="#BA4D3C" />
    <path
        d="M201.96 90.3652C201.929 90.3672 201.898 90.3569 201.874 90.3367C201.85 90.3164 201.834 90.2877 201.831 90.2564C201.829 90.2403 201.83 90.224 201.835 90.2085C201.839 90.1929 201.847 90.1783 201.857 90.1657C201.867 90.153 201.879 90.1425 201.894 90.1348C201.908 90.127 201.923 90.1221 201.94 90.1204C202.451 90.0825 202.946 89.9241 203.385 89.6582C203.823 89.3922 204.192 89.0264 204.462 88.5904C204.477 88.5617 204.502 88.5399 204.533 88.5297C204.563 88.5195 204.597 88.5218 204.626 88.536C204.653 88.5518 204.674 88.5772 204.684 88.6073C204.694 88.6373 204.693 88.6701 204.68 88.6992C204.393 89.1743 203.996 89.5736 203.523 89.8635C203.05 90.1534 202.514 90.3255 201.96 90.3652Z"
        fill="#263238" />
    <path
        d="M204.68 83.3205C204.643 83.3236 204.605 83.3185 204.57 83.3056C204.534 83.2927 204.502 83.2723 204.476 83.2457C204.279 83.0112 204.028 82.8271 203.746 82.7088C203.463 82.5906 203.156 82.5415 202.851 82.5657C202.788 82.5756 202.723 82.5606 202.671 82.5238C202.619 82.4869 202.584 82.4312 202.572 82.3685C202.566 82.3372 202.567 82.3051 202.573 82.274C202.58 82.2428 202.593 82.2134 202.612 82.1874C202.63 82.1614 202.653 82.1394 202.68 82.1226C202.708 82.1058 202.738 82.0946 202.769 82.0897C203.148 82.0499 203.531 82.1014 203.886 82.2398C204.241 82.3782 204.557 82.5995 204.809 82.8853C204.833 82.9076 204.852 82.9344 204.865 82.9643C204.877 82.9941 204.884 83.0262 204.884 83.0587C204.884 83.0912 204.877 83.1234 204.865 83.1532C204.852 83.183 204.833 83.2099 204.809 83.2321C204.776 83.2736 204.731 83.3044 204.68 83.3205Z"
        fill="#263238" />
    <path
        d="M196.554 83.9731C196.518 83.9803 196.481 83.9803 196.445 83.9731C196.387 83.9464 196.342 83.898 196.319 83.8383C196.296 83.7786 196.297 83.7122 196.323 83.6535C196.47 83.2994 196.7 82.9857 196.994 82.7385C197.287 82.4912 197.635 82.3177 198.009 82.2323C198.043 82.2207 198.078 82.2164 198.114 82.22C198.149 82.2235 198.183 82.2346 198.214 82.2527C198.245 82.2708 198.271 82.2953 198.291 82.3246C198.311 82.3538 198.325 82.3871 198.331 82.4222C198.337 82.4572 198.335 82.4932 198.326 82.5275C198.317 82.5618 198.3 82.5937 198.277 82.6209C198.254 82.6481 198.226 82.6701 198.194 82.6852C198.161 82.7003 198.126 82.7082 198.091 82.7083C197.795 82.7804 197.521 82.9215 197.29 83.1201C197.06 83.3187 196.88 83.5691 196.765 83.8507C196.744 83.8883 196.713 83.9194 196.676 83.941C196.639 83.9625 196.597 83.9736 196.554 83.9731Z"
        fill="#263238" />
    <path
        d="M212.84 101.32C215.506 101.32 221.932 101.463 222.557 103.843C223.183 106.223 222.496 110.078 221.646 112.343C222.897 115.797 222.496 120.897 221.306 122.488C222.612 126.337 221.762 129.173 220.966 130.533C221.592 132.063 222.156 136.428 221.197 138.577C221.986 141.637 222.89 146.737 221.476 147.764C219.552 149.124 214.431 149.804 210.814 148.947C207.196 148.09 208.617 140.787 208.896 139.087C207.312 136.993 209.012 130.703 209.012 130.703C208.216 128.948 209.406 122.373 209.406 122.373C208.447 120.788 209.692 112.173 209.692 112.173C208.658 110.445 208.209 101.32 212.84 101.32Z"
        fill="#263238" />
    <path
        d="M193.263 102.904C195.357 101.98 202.375 100.3 201.015 102.15C199.043 104.836 200.253 107.664 199.084 110.99C200.117 114.165 199.764 119.354 198.805 121.19C199.656 123.853 199.57 126.728 198.56 129.336C199.07 130.696 199.539 134.96 198.744 137.326C199.424 140.209 199.94 146.023 198.744 147.336C197.882 148.284 196.74 148.934 195.484 149.189C194.229 149.445 192.924 149.293 191.76 148.757C190.094 148.077 189.353 142.514 190.176 140.597C188.557 137.068 189.876 131.838 189.876 131.838C188.312 129.118 189.523 123.413 189.523 123.413C187.972 118.354 189.876 112.758 189.876 112.758C189.04 111.241 189.924 104.38 193.263 102.904Z"
        fill="#263238" />
    <path
        d="M197.88 103.53C197.601 103.323 197.375 103.055 197.218 102.746C197.061 102.436 196.978 102.095 196.976 101.748C196.97 101.516 197.011 101.285 197.095 101.068C197.18 100.851 197.306 100.654 197.467 100.486C197.628 100.319 197.821 100.185 198.034 100.092C198.248 99.9993 198.477 99.9498 198.71 99.9463C199.506 100.012 200.279 100.244 200.981 100.626C202.048 101.15 202.443 101.633 202.49 102.421C202.538 103.21 200.593 105.985 199.526 105.325C198.458 104.665 198.478 104.21 197.88 103.53Z"
        fill="#263238" />
    <path opacity="0.2"
        d="M218.511 113.254C219.042 110.962 220.388 111.166 221.728 112.105L221.632 112.37C222.884 115.824 222.482 120.924 221.292 122.516C221.367 122.733 221.435 122.951 221.496 123.196C219.83 121.564 217.518 117.579 218.511 113.254Z"
        fill="black" />
    <path
        d="M218.742 118.85L214.22 120.917L213.778 135.524L201.491 143.439L215.247 148.376L218.98 162.499L223.509 160.439L226.039 137.4L218.742 118.85Z"
        fill="#57C7DF" />
    <path opacity="0.3"
        d="M218.742 118.85L214.22 120.917L213.778 135.524L201.491 143.439L215.247 148.376L218.98 162.499L223.509 160.439L226.039 137.4L218.742 118.85Z"
        fill="black" />
    <path d="M247.044 149.695L242.515 151.762L227.922 150.946L234.029 146.826L247.044 149.695Z"
        fill="#57C7DF" />
    <path opacity="0.3"
        d="M247.044 149.695L242.515 151.762L227.922 150.946L234.029 146.826L247.044 149.695Z"
        fill="black" />
    <path
        d="M218.742 118.85L230.071 128.084L244.1 123.991L238.816 137.618L247.044 149.695L232.451 148.879L223.509 160.439L219.769 146.309L206.02 141.372L218.3 133.456L218.742 118.85Z"
        fill="#57C7DF" />
    <path
        d="M225.862 147.887L225.76 152.504L231.2 152.198C231.2 152.198 231.934 149.308 228.806 147.295L225.862 147.887Z"
        fill="#CE7A63" />
    <path d="M227.508 157.127L231.275 154.958L231.207 152.197L225.76 152.503L227.508 157.127Z"
        fill="#CE7A63" />
    <path
        d="M222.741 103.707C223.183 104.115 223.516 104.427 223.883 104.788C224.25 105.148 224.563 105.468 224.944 105.849C225.624 106.563 226.304 107.297 226.984 108.038C228.314 109.56 229.564 111.148 230.731 112.798C231.963 114.522 233.057 116.341 234.002 118.238C235.138 120.435 235.867 122.819 236.15 125.276C236.192 125.64 236.213 126.005 236.212 126.371V126.942V127.337L236.096 128.88C235.974 129.893 235.851 130.92 235.681 131.879C235.366 133.819 234.953 135.741 234.444 137.639C233.465 141.37 232.169 145.01 230.568 148.519C230.306 149.11 229.843 149.588 229.261 149.869C228.679 150.149 228.016 150.214 227.391 150.05C226.766 149.886 226.22 149.506 225.85 148.976C225.48 148.446 225.311 147.802 225.372 147.159V147.05C225.665 143.459 226.052 139.801 226.25 136.251C226.386 134.47 226.44 132.709 226.481 130.988C226.481 130.125 226.481 129.281 226.481 128.438L226.426 127.214V126.915V126.786C226.412 126.689 226.392 126.594 226.365 126.5C226.012 125.304 225.499 124.16 224.842 123.1C224.013 121.744 223.105 120.439 222.122 119.19C221.095 117.885 219.994 116.586 218.851 115.307C218.28 114.668 217.688 114.043 217.104 113.41L216.22 112.479L215.383 111.615L215.247 111.472C214.277 110.452 213.741 109.096 213.75 107.688C213.76 106.28 214.315 104.931 215.298 103.924C216.281 102.917 217.617 102.33 219.024 102.287C220.431 102.244 221.8 102.748 222.843 103.693L222.741 103.707Z"
        fill="#263238" />
    <path
        d="M214.88 102.931C215.56 102.836 215.737 101.245 215.193 100.211C214.751 99.3614 213.153 99.477 211.725 99.8442C210.576 100.1 209.475 100.541 208.468 101.15C207.026 101.945 207.55 102.904 207.883 103.659C208.216 104.414 208.848 106.148 210.208 105.23C211.568 104.312 213.928 103.074 214.88 102.931Z"
        fill="#263238" />
    <path
        d="M232.03 273.788C231.928 271.619 232.499 268.117 227.161 270.388C223.972 271.748 228.453 275.339 228.453 275.339L232.03 273.788Z"
        fill="#263238" />
    <path
        d="M165.172 104.72H172.475C172.678 104.727 172.874 104.796 173.037 104.918C173.2 105.039 173.322 105.208 173.386 105.4L177.208 119C177.233 119.079 177.238 119.163 177.224 119.245C177.21 119.327 177.177 119.404 177.127 119.471C177.077 119.537 177.012 119.591 176.938 119.627C176.863 119.664 176.781 119.682 176.698 119.68H169.388C169.187 119.67 168.993 119.599 168.832 119.478C168.671 119.357 168.55 119.191 168.484 119L164.662 105.4C164.635 105.321 164.629 105.236 164.642 105.154C164.655 105.071 164.689 104.993 164.739 104.926C164.789 104.86 164.854 104.806 164.93 104.77C165.005 104.734 165.088 104.717 165.172 104.72Z"
        fill="#57C7DF" />
    <path d="M169.15 113.886L167.62 108.562L164.954 109.623L165.92 115.92L169.15 113.886Z"
        fill="#CE7A63" />
    <path opacity="0.3"
        d="M173.06 105.209C173.132 105.214 173.2 105.24 173.257 105.285C173.313 105.33 173.353 105.392 173.373 105.461L177.201 119C177.213 119.028 177.217 119.058 177.214 119.088C177.21 119.119 177.199 119.147 177.182 119.172C177.164 119.197 177.14 119.216 177.113 119.229C177.085 119.242 177.055 119.247 177.024 119.245C176.953 119.242 176.885 119.217 176.829 119.173C176.772 119.129 176.731 119.068 176.712 119L172.897 105.441C172.89 105.415 172.888 105.387 172.893 105.361C172.898 105.334 172.908 105.309 172.924 105.287C172.94 105.265 172.96 105.246 172.983 105.233C173.007 105.22 173.033 105.212 173.06 105.209Z"
        fill="black" />
    <path d="M83.3476 51.8838H78.2V52.5638H83.3476V51.8838Z" fill="#57C7DF" />
    <path
        d="M59.16 59.595H58.48C58.4817 57.5563 59.2901 55.6011 60.7285 54.1563C62.1669 52.7115 64.1185 51.8946 66.1572 51.8838H75.4052V52.5638H66.1572C64.2988 52.5746 62.5202 53.3199 61.2093 54.6371C59.8984 55.9544 59.1617 57.7366 59.16 59.595Z"
        fill="#57C7DF" />
    <path
        d="M146.445 54.2637H66.1572C63.2166 54.2637 60.8328 56.6475 60.8328 59.5881V72.8073C60.8328 75.7479 63.2166 78.1317 66.1572 78.1317H146.445C149.385 78.1317 151.769 75.7479 151.769 72.8073V59.5881C151.769 56.6475 149.385 54.2637 146.445 54.2637Z"
        fill="#57C7DF" />
    <path
        d="M95.438 62.6006L96.6076 64.967L99.2256 65.3478L97.3284 67.1906L97.7772 69.8018L95.438 68.571L93.0988 69.8018L93.5476 67.1906L91.6504 65.3478L94.2684 64.967L95.438 62.6006Z"
        fill="white" />
    <path
        d="M106.06 62.6006L107.229 64.967L109.847 65.3478L107.95 67.1906L108.399 69.8018L106.06 68.571L103.72 69.8018L104.169 67.1906L102.272 65.3478L104.89 64.967L106.06 62.6006Z"
        fill="white" />
    <path
        d="M116.681 62.6006L117.851 64.967L120.469 65.3478L118.578 67.1906L119.02 69.8018L116.681 68.571L114.342 69.8018L114.791 67.1906L112.894 65.3478L115.512 64.967L116.681 62.6006Z"
        fill="white" />
    <path
        d="M127.303 62.6006L128.472 64.967L131.09 65.3478L129.2 67.1906L129.642 69.8018L127.303 68.571L124.964 69.8018L125.412 67.1906L123.515 65.3478L126.133 64.967L127.303 62.6006Z"
        fill="white" />
    <path opacity="0.3"
        d="M137.924 64.1374L138.482 65.273C138.532 65.3716 138.605 65.4566 138.695 65.5205C138.785 65.5845 138.889 65.6256 138.999 65.6402L140.25 65.8238L139.346 66.7078C139.267 66.7843 139.208 66.8786 139.174 66.9828C139.139 67.087 139.131 67.198 139.148 67.3062L139.359 68.5574L138.244 67.9998C138.144 67.952 138.035 67.9264 137.924 67.925C137.816 67.9246 137.708 67.9502 137.612 67.9998L136.49 68.5914L136.68 67.3198C136.698 67.2116 136.689 67.1006 136.655 66.9964C136.621 66.8922 136.562 66.7979 136.483 66.7214L135.578 65.8374L136.83 65.6538C136.942 65.6406 137.05 65.5995 137.142 65.5342C137.235 65.4689 137.31 65.3814 137.36 65.2798L137.918 64.1442M137.918 62.6074L136.748 64.9738L134.13 65.3546L136.027 67.2042L135.578 69.8086L137.918 68.5778L140.257 69.8086L139.808 67.2042L141.705 65.3546L139.087 64.9738L137.918 62.6074Z"
        fill="white" />
    <path opacity="0.2"
        d="M77.418 74.3644C81.9284 74.3644 85.5848 70.708 85.5848 66.1976C85.5848 61.6872 81.9284 58.0308 77.418 58.0308C72.9076 58.0308 69.2512 61.6872 69.2512 66.1976C69.2512 70.708 72.9076 74.3644 77.418 74.3644Z"
        fill="white" />
    <path
        d="M84.1636 66.198C84.1654 67.6985 83.6662 69.1567 82.7453 70.3415C81.8244 71.5262 80.5344 72.3697 79.0799 72.7382C77.6253 73.1067 76.0893 72.9792 74.7153 72.3759C73.3414 71.7726 72.2082 70.7279 71.4952 69.4076C70.9564 68.4238 70.6756 67.3196 70.6792 66.198C70.7349 64.4469 71.4696 62.7861 72.7279 61.5671C73.9862 60.3481 75.6695 59.6665 77.4214 59.6665C79.1734 59.6665 80.8566 60.3481 82.115 61.5671C83.3733 62.7861 84.108 64.4469 84.1636 66.198Z"
        fill="white" />
    <path
        d="M83.3476 69.4072C82.7711 70.4769 81.9159 71.3706 80.8725 71.9936C79.8291 72.6165 78.6366 72.9454 77.4214 72.9454C76.2063 72.9454 75.0137 72.6165 73.9704 71.9936C72.927 71.3706 72.0717 70.4769 71.4952 69.4072C73.2498 68.2362 75.312 67.6113 77.4214 67.6113C79.5309 67.6113 81.593 68.2362 83.3476 69.4072Z"
        fill="#263238" />
    <path
        d="M80.4236 63.9197C80.4236 64.5141 80.2473 65.0952 79.917 65.5895C79.5868 66.0838 79.1173 66.469 78.5681 66.6965C78.0189 66.924 77.4146 66.9835 76.8316 66.8675C76.2486 66.7515 75.713 66.4653 75.2927 66.0449C74.8723 65.6246 74.5861 65.0891 74.4701 64.506C74.3541 63.923 74.4137 63.3187 74.6411 62.7695C74.8686 62.2203 75.2539 61.7509 75.7481 61.4206C76.2424 61.0903 76.8235 60.9141 77.418 60.9141C78.2151 60.9141 78.9796 61.2307 79.5432 61.7944C80.1069 62.358 80.4236 63.1225 80.4236 63.9197Z"
        fill="#FFC3BD" />
    <path d="M140.91 137.21H127.303V137.89H140.91V137.21Z" fill="#57C7DF" />
    <path
        d="M146.445 111.642H66.1572C63.2166 111.642 60.8328 114.026 60.8328 116.966V130.186C60.8328 133.126 63.2166 135.51 66.1572 135.51H146.445C149.385 135.51 151.769 133.126 151.769 130.186V116.966C151.769 114.026 149.385 111.642 146.445 111.642Z"
        fill="#57C7DF" />
    <path
        d="M95.438 119.972L96.6076 122.345L99.2256 122.719L97.3284 124.569L97.7772 127.173L95.438 125.943L93.0988 127.173L93.5476 124.569L91.6504 122.719L94.2684 122.345L95.438 119.972Z"
        fill="white" />
    <path
        d="M106.06 119.972L107.229 122.345L109.847 122.719L107.95 124.569L108.399 127.173L106.06 125.943L103.72 127.173L104.169 124.569L102.272 122.719L104.89 122.345L106.06 119.972Z"
        fill="white" />
    <path
        d="M116.681 119.972L117.851 122.345L120.469 122.719L118.578 124.569L119.02 127.173L116.681 125.943L114.342 127.173L114.791 124.569L112.894 122.719L115.512 122.345L116.681 119.972Z"
        fill="white" />
    <path
        d="M127.303 119.972L128.472 122.345L131.09 122.719L129.2 124.569L129.642 127.173L127.303 125.943L124.964 127.173L125.412 124.569L123.515 122.719L126.133 122.345L127.303 119.972Z"
        fill="white" />
    <path
        d="M137.924 119.972L139.094 122.345L141.712 122.719L139.822 124.569L140.264 127.173L137.924 125.943L135.585 127.173L136.034 124.569L134.137 122.719L136.755 122.345L137.924 119.972Z"
        fill="white" />
    <path opacity="0.2"
        d="M83.1973 129.35C86.3867 126.161 86.3867 120.99 83.1973 117.8C80.008 114.611 74.8371 114.611 71.6477 117.8C68.4584 120.99 68.4584 126.161 71.6477 129.35C74.8371 132.539 80.008 132.539 83.1973 129.35Z"
        fill="white" />
    <path
        d="M84.1636 123.57C84.1669 125.071 83.6689 126.53 82.7485 127.716C81.8281 128.902 80.5381 129.746 79.0832 130.116C77.6282 130.485 76.0915 130.358 74.7169 129.755C73.3423 129.152 72.2085 128.107 71.4952 126.786C70.9564 125.8 70.6757 124.693 70.6792 123.57C70.7349 121.818 71.4696 120.158 72.7279 118.939C73.9862 117.72 75.6695 117.038 77.4214 117.038C79.1734 117.038 80.8566 117.72 82.115 118.939C83.3733 120.158 84.108 121.818 84.1636 123.57Z"
        fill="white" />
    <path opacity="0.5"
        d="M83.3476 126.786C82.7696 127.853 81.9137 128.745 80.8706 129.367C79.8274 129.988 78.6357 130.316 77.4214 130.316C76.2072 130.316 75.0155 129.988 73.9723 129.367C72.9291 128.745 72.0733 127.853 71.4952 126.786C73.2498 125.615 75.312 124.99 77.4214 124.99C79.5309 124.99 81.593 125.615 83.3476 126.786Z"
        fill="#57C7DF" />
    <path
        d="M80.4235 121.264C80.4249 121.859 80.2498 122.441 79.9203 122.936C79.5909 123.431 79.1219 123.818 78.5729 124.046C78.0238 124.275 77.4192 124.335 76.8358 124.22C76.2523 124.105 75.7161 123.819 75.2951 123.399C74.8741 122.979 74.5871 122.443 74.4706 121.86C74.3541 121.277 74.4132 120.672 74.6405 120.123C74.8678 119.573 75.253 119.103 75.7474 118.773C76.2418 118.442 76.8232 118.266 77.4179 118.266C78.2139 118.266 78.9774 118.581 79.5408 119.144C80.1043 119.706 80.4217 120.468 80.4235 121.264Z"
        fill="#FFB573" />
    <path
        d="M146.445 82.9531H66.1572C63.2166 82.9531 60.8328 85.3369 60.8328 88.2775V101.497C60.8328 104.437 63.2166 106.821 66.1572 106.821H146.445C149.385 106.821 151.769 104.437 151.769 101.497V88.2775C151.769 85.3369 149.385 82.9531 146.445 82.9531Z"
        fill="#57C7DF" />
    <path d="M149.301 96.9268L143.589 106.821H157.869L149.301 96.9268Z" fill="#57C7DF" />
    <path
        d="M95.438 91.2832L96.6076 93.6564L99.2256 94.0372L97.3284 95.88L97.7772 98.4844L95.438 97.2536L93.0988 98.4844L93.5476 95.88L91.6504 94.0372L94.2684 93.6564L95.438 91.2832Z"
        fill="white" />
    <path
        d="M106.06 91.2832L107.229 93.6564L109.847 94.0372L107.95 95.88L108.399 98.4844L106.06 97.2536L103.72 98.4844L104.169 95.88L102.272 94.0372L104.89 93.6564L106.06 91.2832Z"
        fill="white" />
    <path opacity="0.3"
        d="M116.681 92.8196L117.239 93.9551C117.288 94.055 117.36 94.1413 117.451 94.2065C117.541 94.2717 117.645 94.3138 117.756 94.3292L119 94.5196L118.096 95.4036C118.017 95.48 117.958 95.5743 117.923 95.6785C117.889 95.7827 117.88 95.8937 117.898 96.0019L118.109 97.2532L116.994 96.6615C116.896 96.6085 116.786 96.5805 116.674 96.5799C116.565 96.5796 116.457 96.6077 116.362 96.6615L115.24 97.2532L115.45 96.0019C115.468 95.8937 115.46 95.7827 115.425 95.6785C115.391 95.5743 115.332 95.48 115.253 95.4036L114.349 94.5196L115.6 94.3359C115.71 94.3206 115.815 94.2785 115.905 94.2133C115.995 94.1481 116.068 94.0618 116.117 93.9619L116.674 92.8263M116.674 91.2896L115.505 93.6628L112.887 94.0436L114.784 95.8863L114.335 98.4907L116.674 97.26L119.014 98.4907L118.565 95.8863L120.462 94.0436L117.844 93.6628L116.674 91.2896Z"
        fill="white" />
    <path opacity="0.3"
        d="M127.303 92.82L127.86 93.9556C127.909 94.0554 127.982 94.1418 128.072 94.207C128.162 94.2722 128.267 94.3143 128.377 94.3296L129.628 94.5132L128.724 95.3972C128.645 95.4736 128.586 95.568 128.552 95.6722C128.518 95.7764 128.509 95.8873 128.527 95.9956L128.738 97.2468L127.622 96.6552C127.524 96.6022 127.414 96.5742 127.303 96.5736C127.193 96.5732 127.085 96.6014 126.99 96.6552L125.868 97.2468L126.079 95.9956C126.097 95.8873 126.088 95.7764 126.054 95.6722C126.019 95.568 125.96 95.4736 125.882 95.3972L124.977 94.5132L126.228 94.3296C126.338 94.3143 126.443 94.2722 126.533 94.207C126.623 94.1418 126.696 94.0554 126.745 93.9556L127.303 92.82ZM127.303 91.2832L126.133 93.6564L123.515 94.0372L125.412 95.88L124.964 98.4844L127.303 97.2536L129.642 98.4844L129.2 95.88L131.097 94.0372L128.479 93.6564L127.31 91.2832H127.303Z"
        fill="white" />
    <path opacity="0.3"
        d="M137.924 92.82L138.482 93.9556C138.531 94.0554 138.604 94.1418 138.694 94.207C138.784 94.2722 138.889 94.3143 138.999 94.3296L140.25 94.5132L139.346 95.3972C139.267 95.4736 139.208 95.568 139.173 95.6722C139.139 95.7764 139.13 95.8873 139.148 95.9956L139.359 97.2468L138.244 96.6552C138.146 96.6022 138.036 96.5742 137.924 96.5736C137.815 96.5732 137.707 96.6014 137.612 96.6552L136.49 97.2468L136.7 95.9956C136.718 95.8873 136.71 95.7764 136.675 95.6722C136.641 95.568 136.582 95.4736 136.503 95.3972L135.599 94.5132L136.85 94.3296C136.96 94.3143 137.065 94.2722 137.155 94.207C137.245 94.1418 137.318 94.0554 137.367 93.9556L137.924 92.82ZM137.924 91.2832L136.755 93.6564L134.137 94.0372L136.034 95.88L135.585 98.4844L137.924 97.2536L140.264 98.4844L139.815 95.88L141.712 94.0372L139.094 93.6564L137.924 91.2832Z"
        fill="white" />
    <path opacity="0.2"
        d="M77.418 103.054C81.9284 103.054 85.5848 99.3974 85.5848 94.887C85.5848 90.3766 81.9284 86.7202 77.418 86.7202C72.9076 86.7202 69.2512 90.3766 69.2512 94.887C69.2512 99.3974 72.9076 103.054 77.418 103.054Z"
        fill="white" />
    <path
        d="M84.1636 94.887C84.1653 96.3875 83.6662 97.8458 82.7453 99.0305C81.8244 100.215 80.5344 101.059 79.0798 101.427C77.6252 101.796 76.0892 101.668 74.7153 101.065C73.3414 100.462 72.2081 99.417 71.4952 98.0966C70.9563 97.1129 70.6756 96.0086 70.6792 94.887C70.6505 93.9836 70.8036 93.0836 71.1296 92.2405C71.4555 91.3975 71.9475 90.6285 72.5764 89.9793C73.2053 89.3301 73.9583 88.8139 74.7906 88.4614C75.6229 88.1089 76.5175 87.9272 77.4214 87.9272C78.3253 87.9272 79.2199 88.1089 80.0522 88.4614C80.8845 88.8139 81.6375 89.3301 82.2664 89.9793C82.8953 90.6285 83.3873 91.3975 83.7132 92.2405C84.0391 93.0836 84.1923 93.9836 84.1636 94.887Z"
        fill="white" />
    <path
        d="M83.3476 98.0966C82.7696 99.1645 81.9137 100.056 80.8706 100.678C79.8274 101.299 78.6357 101.627 77.4214 101.627C76.2072 101.627 75.0155 101.299 73.9723 100.678C72.9291 100.056 72.0733 99.1645 71.4952 98.0966C73.2498 96.9257 75.312 96.3008 77.4214 96.3008C79.5309 96.3008 81.593 96.9257 83.3476 98.0966Z"
        fill="#57C7DF" />
    <path
        d="M80.4236 92.5818C80.4236 93.1762 80.2473 93.7573 79.917 94.2516C79.5868 94.7459 79.1173 95.1311 78.5681 95.3586C78.0189 95.5861 77.4146 95.6456 76.8316 95.5296C76.2486 95.4137 75.713 95.1274 75.2927 94.7071C74.8723 94.2867 74.5861 93.7512 74.4701 93.1681C74.3541 92.5851 74.4137 91.9808 74.6411 91.4316C74.8686 90.8824 75.2539 90.413 75.7481 90.0827C76.2424 89.7525 76.8235 89.5762 77.418 89.5762C77.8129 89.5753 78.2041 89.6524 78.5692 89.8031C78.9343 89.9539 79.266 90.1752 79.5452 90.4545C79.8245 90.7338 80.0459 91.0655 80.1966 91.4305C80.3473 91.7956 80.4244 92.1868 80.4236 92.5818Z"
        fill="#B55B52" />
</svg>
