<svg width="340" height="340" viewBox="0 0 340 340" fill="none" xmlns="http://www.w3.org/2000/svg">
    <path
        d="M279.419 212.786L288.497 212.602L292.971 212.52C294.46 212.52 295.936 212.52 297.425 212.52L297.119 212.82L297.085 205.217L297.425 205.55L288.422 205.51C285.416 205.51 282.418 205.435 279.419 205.401L279.602 205.217C279.602 206.462 279.541 207.713 279.514 208.978L279.419 212.786ZM279.419 212.786L279.317 209.025C279.317 207.754 279.242 206.468 279.228 205.183V205H279.419C282.418 205 285.416 204.891 288.422 204.891L297.425 204.85H297.765V205.197L297.724 212.799V213.105H297.425C295.902 213.105 294.386 213.105 292.869 213.071L288.32 212.976L279.419 212.786Z"
        fill="#EBEBEB" />
    <path
        d="M289.462 222.36L298.54 222.176L303.015 222.095C304.504 222.095 305.986 222.095 307.469 222.061L307.163 222.36V214.758L307.503 215.091L298.5 215.05C295.494 215.05 292.495 214.975 289.496 214.941L289.68 214.758C289.68 216.002 289.619 217.253 289.592 218.518L289.462 222.36ZM289.462 222.36L289.367 218.6C289.333 217.328 289.286 216.043 289.272 214.758V214.574H289.462C292.461 214.54 295.46 214.465 298.466 214.465L307.469 214.424H307.809V214.771L307.768 222.36V222.666H307.469C305.952 222.666 304.429 222.666 302.913 222.632L298.384 222.55L289.462 222.36Z"
        fill="#EBEBEB" />
    <path d="M269.334 222.387H287.341V214.778H269.334V222.387Z" fill="#EBEBEB" />
    <path
        d="M32.5312 260.256L41.5888 260.073L46.0496 259.991C47.532 259.991 49.0076 259.991 50.4832 259.991L50.184 260.29L50.1432 252.708L50.4832 253.048L41.48 252.96C38.488 252.96 35.496 252.878 32.504 252.844L32.6876 252.661C32.6876 253.898 32.6332 255.15 32.5992 256.414L32.5312 260.256ZM32.5312 260.256L32.436 256.51C32.402 255.238 32.3612 253.96 32.3476 252.674V252.491H32.5312C35.5232 252.45 38.5152 252.382 41.5072 252.375L50.4832 252.334H50.8232V252.674V260.256V260.562H50.524C49.0144 260.562 47.498 260.562 45.9884 260.528L41.4324 260.44L32.5312 260.256Z"
        fill="#EBEBEB" />
    <path d="M42.5476 269.824H60.4996V262.235H42.5476V269.824Z" fill="#EBEBEB" />
    <path
        d="M79.186 107.345L88.2708 107.154L92.7452 107.08C94.2276 107.046 95.71 107.08 97.1924 107.046L96.8932 107.345L96.8524 99.7355L97.1924 100.076L88.1892 100.035C85.1904 100.035 82.1848 99.9599 79.186 99.9191L79.3696 99.7355C79.3696 100.98 79.3152 102.238 79.2812 103.503L79.186 107.345ZM79.186 107.345L79.0908 103.584C79.0908 102.313 79.016 101.028 79.0024 99.7355V99.5519H79.186C82.1848 99.5179 85.1904 99.4431 88.1892 99.4431L97.1924 99.3955H97.5324V99.7355L97.4984 107.345V107.651H97.1992C95.6828 107.651 94.1596 107.651 92.65 107.61L88.1212 107.535L79.186 107.345Z"
        fill="#EBEBEB" />
    <path d="M42.4864 41.5752H60.4928V33.966H42.4864V41.5752Z" fill="#EBEBEB" />
    <path
        d="M32.4496 51.1699L41.5276 50.9999L46.002 50.9251C47.4912 50.9251 48.9668 50.9251 50.456 50.9251L50.15 51.2243V43.6151L50.49 43.9551L41.48 43.8599C38.4744 43.8599 35.4756 43.7851 32.4768 43.7443L32.6604 43.5607C32.6604 44.8051 32.5992 46.0563 32.572 47.3279L32.4496 51.1699ZM32.4496 51.1699L32.3476 47.4095C32.3476 46.1379 32.2728 44.8527 32.2592 43.5607V43.3771H32.4496C35.4484 43.3771 38.4472 43.2683 41.4528 43.2615L50.456 43.2207H50.796V43.5607L50.7552 51.1699V51.4759H50.456C48.9328 51.4759 47.4164 51.4759 45.9 51.4351L41.3712 51.3603L32.4496 51.1699Z"
        fill="#EBEBEB" />
    <path
        d="M279.419 41.5752L288.497 41.3848L292.971 41.31C294.46 41.31 295.936 41.31 297.425 41.31L297.119 41.6092L297.085 34L297.425 34.34L288.422 34.2992C285.416 34.2992 282.418 34.2244 279.419 34.1836L279.602 34C279.602 35.2444 279.541 36.4956 279.514 37.7672L279.419 41.5752ZM279.419 41.5752L279.317 37.8148C279.317 36.5432 279.242 35.258 279.228 33.966V33.7824H279.419C282.418 33.7824 285.416 33.6736 288.422 33.6668L297.425 33.626H297.765V34L297.724 41.6092V41.9152H297.425C295.902 41.9152 294.386 41.9152 292.869 41.8744L288.32 41.7656L279.419 41.5752Z"
        fill="#EBEBEB" />
    <path d="M250.954 136.728H268.96V129.118H250.954V136.728Z" fill="#EBEBEB" />
    <path d="M210.576 163.404H308.543V33.9658H210.576V163.404Z" fill="#EBEBEB" />
    <path d="M261.514 96.7231H303.94V39.1475L261.514 39.1475V96.7231Z" fill="white" />
    <path d="M215.166 96.7231H257.591V39.1475L215.166 39.1475V96.7231Z" fill="white" />
    <path d="M261.514 158.216H303.94V100.64H261.514V158.216Z" fill="white" />
    <path d="M215.166 158.216H257.591V100.64H215.166V158.216Z" fill="white" />
    <path d="M243.304 33.9658H210.569V219.143H229.514L216.294 124.916L243.304 33.9658Z"
        fill="#DBDBDB" />
    <path
        d="M237.633 38.9707L232.458 60.4995L227.181 82.0011L216.621 124.998L216.628 124.882L221.51 169.816L223.944 192.283L226.27 214.764L223.611 192.324L221.054 169.871L215.954 124.957L215.948 124.896L215.961 124.834L226.746 81.8923L232.138 60.4179L237.633 38.9707Z"
        fill="#EBEBEB" />
    <path
        d="M212.52 42.772L212.684 61.3428L212.779 79.9136L212.86 117.055L212.779 154.197L212.684 172.768L212.52 191.338L212.35 172.768L212.255 154.197L212.18 117.055L212.255 79.9136L212.35 61.3428L212.52 42.772Z"
        fill="#EBEBEB" />
    <path
        d="M218.634 46.2534L217.634 65.9938L216.566 85.7274L214.329 125.195V125.167L215.417 169.15L215.893 191.134L216.294 213.132L215.546 191.148L214.873 169.163L213.663 125.188V125.167V125.161L216.063 85.7002L217.321 65.9734L218.634 46.2534Z"
        fill="#EBEBEB" />
    <path
        d="M222.897 210.283L220.742 188.979L218.654 167.668C217.328 153.456 215.934 139.244 214.662 125.025V124.937L220.742 91.7593L223.829 75.1741L226.964 58.6025L224.108 75.2217L221.204 91.8409L215.302 125.052V124.971C216.662 139.176 217.913 153.401 219.225 167.613L221.095 188.945L222.897 210.283Z"
        fill="#EBEBEB" />
    <path d="M210.576 127.684H217.967V123.366H210.576V127.684Z" fill="#DBDBDB" />
    <path d="M275.726 33.9658H308.462V219.143H289.517L302.743 124.916L275.726 33.9658Z"
        fill="#DBDBDB" />
    <path
        d="M281.398 38.9707L286.892 60.4179L292.284 81.8923L303.069 124.834L303.083 124.896L303.076 124.957L297.976 169.871L295.419 192.324L292.76 214.764L295.086 192.283L297.527 169.816L302.403 124.882L302.41 124.998L291.849 82.0011L286.572 60.4995L281.398 38.9707Z"
        fill="#EBEBEB" />
    <path
        d="M306.51 42.772L306.68 61.3428L306.775 79.9136L306.85 117.055L306.775 154.197L306.68 172.768L306.51 191.338L306.347 172.768L306.252 154.197L306.177 117.055L306.252 79.9136L306.347 61.3428L306.51 42.772Z"
        fill="#EBEBEB" />
    <path
        d="M300.397 46.2534L301.716 65.9734L302.967 85.7002L305.368 125.161V125.167V125.188L304.157 169.163L303.484 191.148L302.743 213.132L303.144 191.134L303.613 169.15L304.701 125.167V125.195L302.464 85.7274L301.403 65.9938L300.397 46.2534Z"
        fill="#EBEBEB" />
    <path
        d="M296.133 210.283L297.935 188.945L299.812 167.613C301.118 153.401 302.369 139.176 303.729 124.971V125.052L297.84 91.8409L294.936 75.2217L292.08 58.6025L295.222 75.1741L298.309 91.7593L304.382 124.937V125.025C303.103 139.244 301.716 153.456 300.383 167.668L298.302 188.979L296.133 210.283Z"
        fill="#EBEBEB" />
    <path d="M308.462 123.366H301.07V127.684H308.462V123.366Z" fill="#DBDBDB" />
    <path d="M76.7584 51.3604H38.3656V97.9336H76.7584V51.3604Z" fill="#EBEBEB" />
    <path d="M72.3724 55.6104H42.7516V93.6836H72.3724V55.6104Z" fill="white" />
    <path d="M43.9076 55.6104H42.7516V93.6836H43.9076V55.6104Z" fill="#DBDBDB" />
    <path d="M77.9144 51.3604H76.7584V97.9336H77.9144V51.3604Z" fill="#DBDBDB" />
    <path d="M59.6632 60.8599H52.6796V81.6679H59.6632V60.8599Z" fill="#DBDBDB" />
    <path
        d="M68.5916 85.5577H49.2932V74.6777H68.5916V85.5577ZM49.9732 84.8777H67.9116V75.3577H49.9732V84.8777Z"
        fill="#EBEBEB" />
    <path d="M112.105 109.229H73.712V155.802H112.105V109.229Z" fill="#EBEBEB" />
    <path d="M107.719 113.479H78.098V151.552H107.719V113.479Z" fill="white" />
    <path d="M79.254 113.479H78.098V151.552H79.254V113.479Z" fill="#DBDBDB" />
    <path d="M113.261 109.229H112.105V155.802H113.261V109.229Z" fill="#DBDBDB" />
    <path d="M96.0228 123.325H90.0388V138.455H96.0228V123.325Z" fill="#EBEBEB" />
    <path
        d="M102.68 143.283H85.9112V132.178H102.68V143.283ZM86.6048 142.603H102V132.858H86.5912L86.6048 142.603Z"
        fill="#DBDBDB" />
    <path
        d="M94.0576 320.708C130.404 320.708 159.868 317.886 159.868 314.405C159.868 310.923 130.404 308.101 94.0576 308.101C57.7115 308.101 28.2472 310.923 28.2472 314.405C28.2472 317.886 57.7115 320.708 94.0576 320.708Z"
        fill="#EBEBEB" />
    <path
        d="M30.226 300.145L65.1712 299.982L100.116 299.921L170 299.805L239.884 299.921L274.829 299.982L309.774 300.145L274.829 300.315L239.884 300.376L170 300.485L100.116 300.376L65.1712 300.315L30.226 300.145Z"
        fill="#263238" />
    <path
        d="M277.175 239.441C277.175 239.441 270.966 229.921 257.06 231.764C243.848 233.525 235.627 256.672 248.431 260.752C261.236 264.833 261.004 242.665 266.111 239.387C269.872 236.987 274.842 238.047 277.175 239.441Z"
        fill="#57C7DF" />
    <path
        d="M245.324 243.719C246.284 243.027 247.288 242.397 248.329 241.835C249.314 241.293 250.369 240.888 251.464 240.631C253.171 238.475 255.37 236.758 257.876 235.627L257.475 235.565C256.756 235.467 256.032 235.406 255.306 235.382C253.844 235.348 252.388 235.578 251.008 236.062C250.992 236.067 250.974 236.066 250.959 236.058C250.944 236.051 250.932 236.037 250.927 236.021C250.921 236.005 250.923 235.987 250.93 235.972C250.938 235.956 250.951 235.945 250.968 235.939C252.366 235.486 253.813 235.196 255.279 235.076C255.991 235.015 256.708 235.015 257.421 235.076C257.802 235.117 258.182 235.178 258.556 235.253L258.774 235.293C260.089 234.781 261.457 234.42 262.854 234.219L262.487 234.083C261.835 233.872 261.172 233.697 260.501 233.559C259.161 233.276 257.789 233.169 256.421 233.24C256.34 233.24 256.326 233.111 256.421 233.104C257.803 233.07 259.185 233.145 260.556 233.328C261.712 233.469 262.851 233.727 263.956 234.097C264.79 234.026 265.628 234.01 266.465 234.049C271.225 234.301 276.23 236.565 278.78 240.74C281.33 244.915 281.411 250.179 281.5 254.939C281.673 261.576 281.218 268.215 280.14 274.767C280.072 275.155 279.534 275.033 279.562 274.659C279.908 269.049 280.242 263.439 280.242 257.815C280.242 255.211 280.208 252.593 280.024 249.995C279.918 247.764 279.49 245.561 278.752 243.453C277.933 241.297 276.498 239.429 274.625 238.081C272.739 236.752 270.581 235.858 268.308 235.463C266.283 235.108 264.212 235.108 262.188 235.463C262.218 235.869 262.191 236.276 262.106 236.674C262.017 237.175 261.868 237.663 261.664 238.129C261.476 238.57 261.249 238.994 260.984 239.394C260.692 239.843 260.304 240.23 260.012 240.645C259.957 240.713 259.855 240.645 259.91 240.563C260.544 239.817 260.994 238.932 261.222 237.979C261.346 237.532 261.444 237.078 261.514 236.619C261.569 236.273 261.569 235.939 261.616 235.572C259.395 236.031 257.28 236.903 255.381 238.143C255.02 238.381 254.701 238.625 254.34 238.884C254.747 239.346 255.09 239.86 255.36 240.414C255.76 241.14 256.097 241.9 256.367 242.685C256.802 244.26 257.029 245.886 257.04 247.52C257.04 247.538 257.033 247.555 257.02 247.568C257.007 247.581 256.99 247.588 256.972 247.588C256.954 247.588 256.937 247.581 256.924 247.568C256.911 247.555 256.904 247.538 256.904 247.52C256.804 245.922 256.424 244.355 255.782 242.889C255.49 242.165 255.151 241.461 254.769 240.781C254.572 240.427 254.361 240.101 254.143 239.747C254.028 239.564 253.898 239.38 253.79 239.19C252.041 240.605 250.558 242.32 249.41 244.256C249.983 244.997 250.441 245.82 250.77 246.697C251.174 247.622 251.512 248.574 251.784 249.546C252.271 251.42 252.636 253.323 252.878 255.245C252.878 255.326 252.763 255.34 252.749 255.245C252.519 253.309 252.047 251.411 251.342 249.594C251.015 248.703 250.662 247.826 250.288 246.955C249.892 246.141 249.543 245.306 249.24 244.453C248.146 246.352 247.415 248.439 247.085 250.607C247.085 250.689 246.942 250.668 246.956 250.607C247.534 247.212 248.896 243.999 250.934 241.223C250.063 241.495 249.2 241.76 248.356 242.114C247.282 242.558 246.267 243.136 245.337 243.834C245.33 243.882 245.256 243.766 245.324 243.719Z"
        fill="#263238" />
    <path
        d="M255.258 245.167C255.537 246.527 255.938 247.887 256.17 249.295C256.42 250.639 256.493 252.011 256.387 253.375C256.387 253.409 256.326 253.409 256.326 253.375C256.217 250.62 255.816 247.885 255.129 245.215C255.126 245.206 255.125 245.197 255.125 245.188C255.125 245.179 255.127 245.17 255.131 245.162C255.135 245.154 255.14 245.146 255.147 245.14C255.154 245.134 255.161 245.129 255.17 245.126C255.178 245.123 255.187 245.122 255.196 245.122C255.205 245.122 255.214 245.125 255.223 245.128C255.231 245.132 255.238 245.138 255.244 245.144C255.25 245.151 255.255 245.159 255.258 245.167Z"
        fill="#263238" />
    <path
        d="M246.956 241.019C247.538 240.554 248.187 240.178 248.88 239.904C249.584 239.662 250.308 239.48 251.042 239.36C251.117 239.36 251.138 239.482 251.042 239.489C250.322 239.611 249.62 239.825 248.955 240.128C248.283 240.402 247.631 240.723 247.003 241.087C246.999 241.09 246.994 241.092 246.988 241.094C246.983 241.095 246.978 241.095 246.972 241.094C246.967 241.093 246.962 241.091 246.957 241.088C246.952 241.085 246.948 241.081 246.945 241.077C246.942 241.072 246.94 241.067 246.939 241.062C246.938 241.057 246.938 241.051 246.938 241.046C246.939 241.04 246.941 241.035 246.944 241.031C246.947 241.026 246.951 241.022 246.956 241.019Z"
        fill="#263238" />
    <path
        d="M270.45 228.371C270.45 228.371 269.144 212.384 257.258 207.203C247.33 202.871 241.618 214.003 248.662 220.857C254.32 226.379 263.446 223.89 270.45 228.371Z"
        fill="#57C7DF" />
    <path
        d="M250.866 210.296C252.673 211.028 254.438 211.864 256.149 212.799C257.564 213.62 258.927 214.528 260.229 215.519C260.032 215.118 259.862 214.689 259.658 214.295C259.352 213.676 259.019 213.078 258.652 212.486C257.919 211.278 257.04 210.166 256.034 209.174C255.972 209.113 256.068 209.025 256.129 209.086C257.131 210.081 258.052 211.154 258.883 212.296C259.294 212.876 259.671 213.48 260.012 214.104C260.363 214.675 260.631 215.293 260.807 215.94L260.943 216.042C263.019 217.695 264.922 219.554 266.621 221.591C266.587 221.435 266.553 221.278 266.512 221.136C266.288 220.354 266.05 219.585 265.792 218.81C265.283 217.17 264.56 215.604 263.643 214.152C263.637 214.137 263.637 214.12 263.642 214.105C263.647 214.09 263.658 214.077 263.672 214.069C263.686 214.061 263.702 214.058 263.718 214.061C263.734 214.064 263.748 214.072 263.758 214.084C264.692 215.541 265.524 217.061 266.247 218.633C266.576 219.402 266.851 220.193 267.07 221C267.243 221.523 267.372 222.06 267.458 222.604C267.974 223.284 268.484 223.924 268.96 224.604C274.067 231.873 276.624 240.658 277.243 249.451C277.422 252.072 277.465 254.7 277.372 257.325C277.357 259.975 277.129 262.62 276.692 265.234C276.658 265.397 276.4 265.349 276.406 265.186C276.461 262.874 276.706 260.576 276.746 258.264C276.791 255.947 276.716 253.63 276.522 251.321C276.146 246.708 275.278 242.149 273.931 237.721C272.559 233.188 270.534 228.879 267.92 224.93C267.417 224.835 266.92 224.699 266.431 224.57C265.941 224.44 265.241 224.264 264.649 224.1C263.508 223.804 262.399 223.396 261.338 222.883C261.323 222.874 261.313 222.86 261.309 222.843C261.305 222.827 261.308 222.809 261.317 222.795C261.326 222.78 261.341 222.77 261.357 222.766C261.374 222.763 261.391 222.765 261.406 222.774C262.453 223.344 263.588 223.735 264.765 223.93C265.696 224.114 266.662 224.236 267.594 224.454C266.738 223.194 265.816 221.979 264.833 220.816C262.565 221.027 260.278 220.857 258.067 220.313C256.891 220.029 255.735 219.67 254.606 219.238C253.416 218.776 252.287 218.191 251.117 217.695C251.029 217.661 251.117 217.532 251.165 217.579C253.296 218.738 255.622 219.498 258.026 219.823C260.147 220.163 262.291 220.34 264.438 220.354C263.595 219.381 262.718 218.443 261.786 217.552C258.665 214.58 254.986 211.847 250.845 210.426C250.743 210.398 250.784 210.262 250.866 210.296Z"
        fill="#263238" />
    <path
        d="M260.535 210.344C261.071 211.021 261.559 211.735 261.997 212.479C262.438 213.265 262.789 214.097 263.044 214.961C263.044 214.961 263.01 215.002 262.997 214.961C262.596 214.179 262.262 213.363 261.861 212.588C261.471 211.816 260.994 211.09 260.44 210.426C260.392 210.371 260.488 210.283 260.535 210.344Z"
        fill="#263238" />
    <path
        d="M249.485 215.669C250.257 216.096 251.073 216.438 251.92 216.689C252.733 216.962 253.562 217.189 254.402 217.369C254.442 217.369 254.436 217.444 254.402 217.437C253.526 217.345 252.664 217.156 251.831 216.872C251.007 216.566 250.203 216.207 249.424 215.798C249.342 215.744 249.41 215.628 249.485 215.669Z"
        fill="#263238" />
    <path
        d="M279.038 226.018C279.113 226.698 280.833 220.211 290.884 214.458C300.016 209.222 310.91 195.595 301.961 186.993C294.732 180.03 275.699 195.16 279.038 226.018Z"
        fill="#57C7DF" />
    <path
        d="M272.116 263.262C272.264 256.498 272.797 249.748 273.714 243.045C274.509 236.887 275.931 230.827 277.957 224.957C278.705 222.843 279.562 220.769 280.486 218.715C280.435 217.92 280.449 217.121 280.527 216.328C280.582 215.301 280.67 214.288 280.765 213.261C280.86 212.234 280.962 211.221 281.085 210.201C281.207 209.181 281.425 208.161 281.466 207.155C281.466 207.06 281.615 207.08 281.595 207.155C281.393 208.223 281.272 209.305 281.234 210.392C281.153 211.378 281.098 212.364 281.064 213.35C281.03 214.336 281.064 215.328 281.064 216.321C281.064 216.675 281.064 217.056 281.064 217.437C282.01 215.437 283.023 213.472 284.124 211.554C283.444 207.386 284.328 203.034 285.178 198.961C285.178 198.879 285.321 198.913 285.301 198.995C284.877 201.123 284.65 203.285 284.621 205.455C284.58 207.169 284.662 208.855 284.668 210.589C284.906 210.181 285.151 209.766 285.396 209.365C286.702 207.237 288.116 205.149 289.571 203.122C289.45 202.135 289.482 201.135 289.666 200.158C289.834 199.059 290.077 197.973 290.394 196.907C290.72 195.847 291.074 194.799 291.509 193.772C291.944 192.746 292.522 191.732 292.944 190.651C292.978 190.563 293.114 190.651 293.06 190.706C292.527 191.709 292.105 192.767 291.802 193.861C291.472 194.888 291.198 195.932 290.979 196.989C290.768 198.043 290.598 199.104 290.448 200.178C290.346 200.858 290.285 201.613 290.163 202.327C292.317 199.447 294.669 196.721 297.201 194.167C297.262 194.106 297.35 194.201 297.289 194.262C293.464 198.567 290.049 203.221 287.089 208.161C286.974 208.345 286.872 208.535 286.763 208.726C287.32 208.372 287.953 208.1 288.476 207.808C289.449 207.271 290.421 206.733 291.407 206.203L294.25 204.646C294.739 204.374 295.222 204.088 295.718 203.837C296.311 203.57 296.879 203.254 297.418 202.891C297.493 202.837 297.575 202.952 297.493 203C296.528 203.53 295.671 204.319 294.739 204.918C293.808 205.516 292.849 206.094 291.87 206.638C290.081 207.631 288.143 208.352 286.382 209.358C285.165 211.493 284.043 213.69 282.982 215.92C284.05 215.24 285.138 214.56 286.246 213.969C286.96 213.567 287.674 213.173 288.395 212.792C289.119 212.462 289.803 212.052 290.435 211.568C290.496 211.514 290.584 211.609 290.523 211.663C289.353 212.717 288.056 213.619 286.661 214.349C285.369 215.104 284.063 215.832 282.724 216.491C281.649 218.844 280.684 221.251 279.813 223.686C275.584 235.667 274.026 248.383 273.285 261.011C273.068 264.778 272.952 268.538 272.904 272.312C272.857 276.086 273.054 279.84 273.047 283.6C273.047 283.716 272.864 283.743 272.85 283.6C272.394 280.262 272.32 276.862 272.17 273.502C272.02 270.143 272.041 266.682 272.116 263.262Z"
        fill="#263238" />
    <path
        d="M290.36 209.025C292.195 208.216 293.978 207.294 295.698 206.264C297.444 205.282 299.138 204.208 300.771 203.048C300.771 203.048 300.832 203.048 300.805 203.089C299.265 204.337 297.638 205.473 295.936 206.489C294.156 207.487 292.314 208.371 290.421 209.134C290.36 209.175 290.299 209.059 290.36 209.025Z"
        fill="#263238" />
    <path
        d="M287.47 195.486C287.613 194.901 287.803 194.323 287.994 193.759C287.986 193.749 287.982 193.737 287.982 193.725C287.982 193.713 287.986 193.701 287.994 193.691C288.116 193.365 288.252 193.045 288.381 192.725L288.429 192.61C288.458 192.548 288.483 192.484 288.504 192.419C288.504 192.419 288.544 192.419 288.538 192.419C288.531 192.419 288.476 192.644 288.442 192.753C288.427 192.815 288.409 192.876 288.388 192.936C287.724 195.163 287.226 197.436 286.899 199.736C286.899 199.804 286.776 199.811 286.776 199.736C286.874 198.301 287.106 196.878 287.47 195.486Z"
        fill="#263238" />
    <path
        d="M277.229 243.331C280.731 232.451 288.646 225.991 298.826 227.487C309.006 228.983 312.46 242.379 305.66 246.84C298.86 251.301 290.136 242.311 285.994 240.801C281.853 239.292 277.229 243.331 277.229 243.331Z"
        fill="#57C7DF" />
    <path
        d="M276.298 271.109C276.148 269.878 276.026 268.648 275.89 267.41C275.631 264.948 275.359 262.487 275.101 260.025C274.632 255.524 274.489 251.056 275.781 246.663C276.881 242.675 279.17 239.117 282.343 236.463C283.521 235.5 284.825 234.701 286.219 234.09C287.346 232.574 288.888 231.416 290.659 230.758C292.857 229.976 295.174 229.587 297.507 229.609C297.588 229.609 297.602 229.731 297.507 229.738C295.293 229.759 293.106 230.221 291.074 231.098C290.202 231.474 289.372 231.941 288.599 232.492C288.116 232.849 287.662 233.243 287.239 233.668C289.151 232.977 291.19 232.706 293.216 232.873C293.946 232.941 294.67 233.07 295.378 233.26C295.896 233.066 296.439 232.942 296.99 232.893C297.706 232.812 298.429 232.812 299.146 232.893C300.616 233.087 302.053 233.483 303.416 234.07C303.429 234.079 303.439 234.092 303.443 234.107C303.448 234.123 303.447 234.139 303.44 234.154C303.434 234.168 303.422 234.18 303.408 234.187C303.393 234.194 303.377 234.196 303.362 234.192C302.034 233.693 300.642 233.384 299.227 233.274C298.548 233.22 297.866 233.22 297.187 233.274C296.81 233.307 296.435 233.364 296.065 233.444C299.031 234.33 301.587 236.238 303.28 238.83C303.321 238.904 303.219 238.979 303.171 238.911C302.173 237.409 300.849 236.152 299.297 235.234C297.745 234.315 296.006 233.759 294.209 233.607C293.984 233.607 293.76 233.607 293.529 233.573C293.626 233.911 293.703 234.253 293.76 234.6C293.896 235.083 294.052 235.566 294.222 236.042C294.567 237.021 294.974 237.977 295.44 238.904C295.907 239.846 296.439 240.755 297.031 241.624C297.609 242.553 298.294 243.411 299.071 244.181C299.139 244.242 299.037 244.338 298.976 244.27C298.262 243.433 297.452 242.685 296.786 241.808C296.142 240.969 295.563 240.082 295.052 239.156C294.54 238.215 294.103 237.235 293.746 236.225C293.563 235.695 293.4 235.151 293.257 234.607C293.145 234.284 293.076 233.948 293.053 233.607C291.879 233.594 290.708 233.736 289.571 234.029C290.353 236.395 291.176 238.857 292.842 240.774C292.896 240.836 292.788 240.924 292.733 240.849C291.936 239.824 291.211 238.745 290.564 237.619C289.946 236.525 289.488 235.348 289.204 234.124C287.233 234.675 285.387 235.598 283.764 236.844C280.702 239.257 278.454 242.551 277.324 246.282C276.137 250.291 275.756 254.495 276.202 258.652C276.617 263.901 277.297 269.144 277.515 274.407C277.515 274.747 277.012 274.938 276.889 274.564C276.583 273.433 276.385 272.277 276.298 271.109Z"
        fill="#263238" />
    <path
        d="M282.88 235.572C283.15 235.131 283.48 234.728 283.859 234.376C284.212 233.977 284.587 233.598 284.981 233.24C285.753 232.527 286.641 231.949 287.606 231.533C287.681 231.499 287.735 231.622 287.654 231.656C286.68 232.052 285.802 232.649 285.076 233.41C284.705 233.777 284.351 234.158 284.016 234.552C283.721 234.959 283.386 235.335 283.016 235.674C282.975 235.729 282.88 235.654 282.88 235.572Z"
        fill="#263238" />
    <path
        d="M299.234 237.007C300.197 237.841 301.106 238.736 301.954 239.686C302.782 240.645 303.509 241.686 304.123 242.794C304.123 242.828 304.123 242.855 304.069 242.828C302.618 240.776 300.982 238.861 299.18 237.109C299.091 237.055 299.2 236.953 299.234 237.007Z"
        fill="#263238" />
    <path
        d="M288.442 237.517C288.637 238.138 288.914 238.731 289.265 239.278C289.617 239.808 290.01 240.308 290.442 240.774C290.442 240.808 290.442 240.849 290.387 240.829C289.403 239.963 288.694 238.828 288.347 237.565C288.32 237.49 288.415 237.436 288.442 237.517Z"
        fill="#263238" />
    <path
        d="M261.501 265.689L262.215 274.189L264.411 300.118H287.932L290.122 274.189L290.843 265.689H261.501Z"
        fill="#455A64" />
    <path d="M261.501 265.689L262.215 274.189H290.122L290.843 265.689H261.501Z" fill="#263238" />
    <path d="M259.189 270.436H293.148V262.283H259.189V270.436Z" fill="#455A64" />
    <path
        d="M227.467 39.5146H112.547C111.005 39.528 109.481 39.845 108.061 40.4476C106.642 41.0502 105.355 41.9266 104.275 43.0267C103.194 44.1267 102.341 45.4289 101.764 46.8589C101.187 48.2888 100.898 49.8184 100.912 51.3602V288C100.894 289.542 101.18 291.073 101.754 292.505C102.327 293.937 103.177 295.241 104.255 296.344C105.333 297.447 106.618 298.327 108.036 298.934C109.454 299.541 110.977 299.862 112.52 299.88H227.44C230.555 299.853 233.532 298.59 235.716 296.369C237.901 294.147 239.113 291.149 239.088 288.034V51.3942C239.106 49.8509 238.82 48.3191 238.245 46.8866C237.671 45.454 236.819 44.1488 235.74 43.0454C234.661 41.9421 233.374 41.0624 231.955 40.4565C230.535 39.8507 229.01 39.5306 227.467 39.5146ZM231.839 280.69C231.839 286.919 227.174 291.958 221.422 291.958H118.585C112.812 291.958 108.154 286.919 108.154 280.69V60.3294C108.154 47.6406 112.812 47.0218 118.585 47.0218H139.182C140.379 47.0218 141.358 48.3818 141.358 50.0682V50.7958C141.358 54.7466 143.521 54.7602 146.18 54.7602H193.78C196.5 54.7602 198.601 54.7602 198.601 50.7958V50.0682C198.601 48.3818 199.566 47.0218 200.79 47.0218H221.388C227.14 47.0218 231.805 48.7082 231.805 60.3294L231.839 280.69Z"
        fill="#263238" />
    <path
        d="M176.494 49.8235H163.499C163.286 49.8235 163.082 49.739 162.932 49.5885C162.781 49.4381 162.697 49.234 162.697 49.0211C162.697 48.8083 162.781 48.6042 162.932 48.4538C163.082 48.3033 163.286 48.2188 163.499 48.2188H176.494C176.707 48.2188 176.911 48.3033 177.061 48.4538C177.212 48.6042 177.296 48.8083 177.296 49.0211C177.296 49.234 177.212 49.4381 177.061 49.5885C176.911 49.739 176.707 49.8235 176.494 49.8235Z"
        fill="white" />
    <path
        d="M231.839 60.3296V280.69C231.839 286.919 227.174 291.958 221.422 291.958H118.585C112.812 291.958 108.154 286.919 108.154 280.69V60.3296C108.154 47.6408 112.812 47.022 118.585 47.022H139.182C140.379 47.022 141.358 48.382 141.358 50.0684V50.796C141.358 54.7468 143.521 54.7604 146.18 54.7604H193.78C196.5 54.7604 198.601 54.7604 198.601 50.796V50.0684C198.601 48.382 199.566 47.022 200.79 47.022H221.388C227.174 47.022 231.839 48.7084 231.839 60.3296Z"
        fill="white" />
    <path
        d="M228.371 48.96H198.791C199.111 47.838 199.893 47.0424 200.831 47.0424H221.442C224.094 47.0152 226.528 47.3824 228.371 48.96Z"
        fill="#DBDBDB" />
    <path
        d="M108.154 269.831V272.761H118.395V269.831H108.154ZM231.839 88.3999L198.56 123.665H183.246V94.5199H189.332V91.5687H180.295V123.658H163.696V54.7603H157.808V75.4051H108.168V81.2939H157.808V123.665H109.704V135.225H108.154V138.176H109.704V181.961L118.544 202.211H108.154V208.1H121.135L128.064 223.937C123.774 225.797 120.229 229.037 117.993 233.143C115.757 237.249 114.958 241.985 115.723 246.598C116.488 251.21 118.774 255.434 122.217 258.598C125.659 261.762 130.061 263.684 134.722 264.057L149.131 287.64L144.786 291.985H158.698L141.331 263.615C144.227 262.919 146.942 261.614 149.294 259.787C151.646 257.96 153.582 255.652 154.973 253.018C156.364 250.384 157.178 247.484 157.361 244.511C157.544 241.538 157.091 238.561 156.033 235.776L197.132 216.226H231.812V210.344H215.376L180.88 172.835H231.826V169.891H178.16L141.059 129.553H201.062L221.34 108.052L231.812 118.524V110.201L225.393 103.775L231.812 96.9747L231.839 88.3999ZM136.422 258.291C133.436 258.292 130.516 257.408 128.033 255.75C125.549 254.092 123.614 251.735 122.47 248.977C121.326 246.218 121.026 243.183 121.608 240.254C122.19 237.325 123.627 234.635 125.738 232.523C127.849 230.411 130.539 228.973 133.467 228.39C136.396 227.807 139.431 228.105 142.19 229.248C144.949 230.39 147.307 232.325 148.966 234.807C150.625 237.29 151.511 240.209 151.511 243.195C151.507 247.196 149.917 251.033 147.088 253.863C144.259 256.693 140.423 258.286 136.422 258.291ZM207.4 210.317H195.84L153.184 230.588C151.227 227.992 148.695 225.885 145.787 224.434C142.878 222.982 139.672 222.226 136.422 222.224C135.547 222.227 134.672 222.281 133.804 222.387L115.6 180.737V129.553H133.076L207.4 210.317ZM211.779 291.958H215.948L231.86 276.039V271.871L211.779 291.958Z"
        fill="#EBEBEB" />
    <path d="M129.2 134.014H120.639V142.575H129.2V134.014Z" fill="#DBDBDB" />
    <path d="M209.569 166.831V150.307H203.558V143.398H192.97V166.831H209.569Z" fill="#DBDBDB" />
    <path d="M180.214 54.7603V71.3795H171.251V61.2611H166.403V54.7603H180.214Z" fill="#DBDBDB" />
    <path
        d="M231.839 60.3227V66.0551H224.359V51.6323H230.384C231.309 53.6043 231.839 56.3991 231.839 60.3227Z"
        fill="#DBDBDB" />
    <path d="M185.565 121.169V108.881H208.59L196.153 121.319L185.565 121.169Z" fill="#DBDBDB" />
    <path d="M177.976 109.752H166.41V121.319H177.976V109.752Z" fill="#DBDBDB" />
    <path d="M155.04 83.5991H141.107V96.4171H155.04V83.5991Z" fill="#DBDBDB" />
    <path d="M155.047 98.9331V121.319H137.999L127.133 110.452V98.9331H155.047Z" fill="#DBDBDB" />
    <path d="M124.059 112.92L132.62 121.482H109.772V112.92H124.059Z" fill="#DBDBDB" />
    <path d="M122.835 221.088H108.154V210.779H118.68L122.835 221.088Z" fill="#DBDBDB" />
    <path
        d="M118.837 260.82V265.771H108.154V243.752H111.071C111.886 250.093 114.592 256.041 118.837 260.82Z"
        fill="#DBDBDB" />
    <path
        d="M170 218.049L161.044 198.703H150.164L131.532 207.345L136.401 217.974H136.442C143.057 217.967 149.409 220.567 154.122 225.209L170 218.049Z"
        fill="#DBDBDB" />
    <path d="M231.839 193.956V206.801H217.831L206.013 193.956H231.839Z" fill="#DBDBDB" />
    <path
        d="M143.854 286.531L138.727 291.971H118.578C117.83 291.969 117.084 291.882 116.355 291.713V285.593H125.072V272.102L131.634 266.58L143.854 286.531Z"
        fill="#DBDBDB" />
    <path
        d="M185.341 263.84L167.661 245.412L160.861 250.709C159.867 253.925 158.248 256.914 156.098 259.505C153.947 262.095 151.307 264.236 148.328 265.805L163.105 289.958L185.341 263.84Z"
        fill="#DBDBDB" />
    <path d="M166.09 237.313L197.132 221.965H212.616V248.961L188.476 260.882L166.09 237.313Z"
        fill="#DBDBDB" />
    <path
        d="M231.826 281.187C231.615 286.627 227.827 291.06 222.952 291.835H221.177L231.826 281.187Z"
        fill="#DBDBDB" />
    <path
        d="M120.639 146.146V180.071L130.104 203.232L147.376 194.67H187.666L142.487 146.146H120.639Z"
        fill="#57C7DF" />
    <path d="M218.892 97.6206H185.565V105.971H211.018L218.892 97.6206Z" fill="#DBDBDB" />
    <path d="M114.104 199.451H108.154V185.667L114.104 199.451Z" fill="#DBDBDB" />
    <path d="M231.839 221.965H216.906V239.618H231.839V221.965Z" fill="#DBDBDB" />
    <path d="M231.839 242.372H216.906V248.567H231.839V242.372Z" fill="#DBDBDB" />
    <path d="M213.194 285.981L207.216 291.958H167.974L188.748 266.587L213.194 285.981Z"
        fill="#DBDBDB" />
    <path
        d="M215.336 283.064L225.42 273.387L213.187 262.738V253.164L191.631 264.146L215.336 283.064Z"
        fill="#57C7DF" />
    <path d="M231.839 251.301V266.315L227.841 270.076L216.906 260.882V251.301H231.839Z"
        fill="#DBDBDB" />
    <path
        d="M111.989 276.127V289.421C110.768 288.321 109.795 286.973 109.134 285.468C108.472 283.963 108.138 282.334 108.154 280.69V276.127H111.989Z"
        fill="#DBDBDB" />
    <path d="M121.55 277.521H116.355V282.717H121.55V277.521Z" fill="#DBDBDB" />
    <path
        d="M154.149 54.7603V71.8759H121.196V52.2851L126.929 47.0151H139.169C140.359 47.0151 141.338 48.3751 141.338 50.0683V50.7959C141.338 54.7467 143.507 54.7603 146.159 54.7603H154.149Z"
        fill="#DBDBDB" />
    <path d="M118.408 61.3633H108.154V71.8625H118.408V61.3633Z" fill="#DBDBDB" />
    <path
        d="M118.408 52.7812V58.6496H108.208C108.243 56.6673 108.519 54.6966 109.031 52.7812H118.408Z"
        fill="#DBDBDB" />
    <path
        d="M123.835 47.0151L120.21 50.4151H110.01C111.887 47.2531 115.029 47.0151 118.585 47.0151H123.835Z"
        fill="#DBDBDB" />
    <path d="M189.564 176.398L203.558 191.093H216.906V176.398H189.564Z" fill="#DBDBDB" />
    <path d="M231.839 184.341H219.681V191.1H231.839V184.341Z" fill="#DBDBDB" />
    <path d="M226.828 176.398H219.681V182.539H226.828V176.398Z" fill="#DBDBDB" />
    <path d="M231.839 176.398H228.609V182.539H231.839V176.398Z" fill="#DBDBDB" />
    <path d="M165.24 198.703H187.666V209.426L173.325 215.934L165.24 198.703Z" fill="#DBDBDB" />
    <path
        d="M136.428 253.347C141.987 253.347 146.492 248.841 146.492 243.283C146.492 237.725 141.987 233.219 136.428 233.219C130.87 233.219 126.364 237.725 126.364 243.283C126.364 248.841 130.87 253.347 136.428 253.347Z"
        fill="#57C7DF" />
    <path d="M113.54 83.5991H108.154V91.3307H113.54V83.5991Z" fill="#DBDBDB" />
    <path d="M123.808 110.133V83.606H115.593V104.931H109.772V110.133H123.808Z" fill="#DBDBDB" />
    <path d="M138.768 83.5991H127.133V95.7031H138.768V83.5991Z" fill="#DBDBDB" />
    <path d="M113.54 92.8198H108.154V102.591H113.54V92.8198Z" fill="#DBDBDB" />
    <path d="M229.357 150.307H212.072V166.838H229.357V150.307Z" fill="#DBDBDB" />
    <path d="M148.954 132.505L166.988 152.13H189.625V132.505H148.954Z" fill="#DBDBDB" />
    <path d="M169.558 154.394L181.002 166.838H189.564V154.394H169.558Z" fill="#DBDBDB" />
    <path d="M203.551 132.505H192.97V140.699H203.551V132.505Z" fill="#DBDBDB" />
    <path d="M229.364 140.358V121.93L221 112.927L206.421 128.56V146.438H223.706V140.358H229.364Z"
        fill="#57C7DF" />
    <path d="M231.839 101.571V106.515L229.452 104.176L231.839 101.571Z" fill="#DBDBDB" />
    <path d="M231.839 68.7412V83.9392L221.802 94.962H208.59V68.7412H231.839Z" fill="#DBDBDB" />
    <path d="M205.523 78.3428H192.664V94.962H205.523V78.3428Z" fill="#57C7DF" />
    <path
        d="M221.802 51.6323V66.0551H205.516V76.2551H192.664V54.7603H193.8C196.268 54.7603 198.288 54.7603 198.56 51.6323H221.802Z"
        fill="#DBDBDB" />
    <path d="M191.005 54.7603H181.778V65.7083H191.005V54.7603Z" fill="#DBDBDB" />
    <path d="M191.012 73.1748H166.41V85.272H191.012V73.1748Z" fill="#DBDBDB" />
    <path d="M191.012 67.4561H181.778V71.3797H191.012V67.4561Z" fill="#DBDBDB" />
    <path d="M177.976 107.44H171.251L166.41 102.843V89.4741H177.976V107.44Z" fill="#DBDBDB" />
    <path
        d="M135.626 51.9722C135.557 52.0346 135.491 52.1004 135.429 52.1694L135.313 52.2782C134.804 51.7716 134.114 51.4873 133.396 51.4873C132.677 51.4873 131.988 51.7716 131.478 52.2782L131.369 52.1626L131.172 51.9654L131.424 51.741C131.604 51.5968 131.8 51.4736 132.008 51.3738C132.251 51.2514 132.51 51.1644 132.777 51.1154C132.905 51.0906 133.034 51.0725 133.164 51.061H133.504H133.763C133.995 51.0915 134.223 51.1486 134.443 51.231C134.61 51.2919 134.771 51.367 134.926 51.4554C135.087 51.5478 135.239 51.6548 135.381 51.775L135.592 51.9654L135.626 51.9722Z"
        fill="#A6A6A6" />
    <path
        d="M132.104 52.9036L131.791 52.5908C132.136 52.2445 132.585 52.0202 133.069 51.9516C133.418 51.8974 133.774 51.9271 134.109 52.0383C134.443 52.1495 134.747 52.3389 134.994 52.5908C134.892 52.6928 134.79 52.8016 134.681 52.9036C134.513 52.7333 134.313 52.5985 134.092 52.5074C133.871 52.4162 133.634 52.3706 133.396 52.3732C133.156 52.3712 132.918 52.4171 132.696 52.5082C132.474 52.5993 132.273 52.7337 132.104 52.9036Z"
        fill="#A6A6A6" />
    <path
        d="M134.368 53.2167L134.055 53.5295C133.965 53.4415 133.859 53.3722 133.742 53.3255C133.626 53.2788 133.501 53.2557 133.375 53.2575C133.249 53.255 133.123 53.2785 133.006 53.3264C132.889 53.3744 132.784 53.4458 132.695 53.5363L132.382 53.2235C132.509 53.0872 132.663 52.9783 132.833 52.9037C133.004 52.829 133.188 52.7902 133.374 52.7896C133.56 52.7889 133.744 52.8265 133.915 52.9C134.086 52.9734 134.24 53.0812 134.368 53.2167Z"
        fill="#A6A6A6" />
    <path
        d="M133.674 53.815C133.675 53.8522 133.669 53.8892 133.655 53.9238C133.642 53.9584 133.621 53.99 133.595 54.0166C133.569 54.0432 133.538 54.0643 133.504 54.0788C133.47 54.0932 133.433 54.1006 133.396 54.1006C133.358 54.1006 133.321 54.0932 133.286 54.0789C133.252 54.0645 133.22 54.0435 133.194 54.017C133.167 53.9904 133.146 53.959 133.132 53.9243C133.117 53.8897 133.11 53.8525 133.11 53.815C133.11 53.7778 133.117 53.741 133.132 53.7067C133.146 53.6725 133.167 53.6414 133.194 53.6154C133.221 53.5894 133.252 53.5691 133.287 53.5555C133.321 53.5418 133.358 53.5353 133.396 53.5362C133.47 53.5362 133.54 53.5656 133.593 53.6179C133.645 53.6702 133.674 53.7411 133.674 53.815Z"
        fill="#A6A6A6" />
    <path
        d="M116.212 52.5708C116.212 52.4081 116.26 52.249 116.351 52.1137C116.441 51.9784 116.57 51.873 116.72 51.8107C116.87 51.7484 117.036 51.7321 117.195 51.7639C117.355 51.7956 117.501 51.874 117.617 51.989C117.732 52.1041 117.81 52.2507 117.842 52.4103C117.873 52.5699 117.857 52.7354 117.795 52.8857C117.733 53.0361 117.627 53.1646 117.492 53.255C117.357 53.3454 117.197 53.3936 117.035 53.3936C116.926 53.3945 116.819 53.3739 116.719 53.3329C116.619 53.2918 116.528 53.2313 116.451 53.1547C116.374 53.0781 116.314 52.987 116.273 52.8868C116.232 52.7866 116.211 52.6791 116.212 52.5708Z"
        fill="#A6A6A6" />
    <path
        d="M118.796 52.5708C118.796 52.4081 118.844 52.249 118.935 52.1137C119.025 51.9784 119.154 51.873 119.304 51.8107C119.454 51.7484 119.62 51.7321 119.779 51.7639C119.939 51.7956 120.085 51.874 120.201 51.989C120.316 52.1041 120.394 52.2507 120.426 52.4103C120.457 52.5699 120.441 52.7354 120.379 52.8857C120.317 53.0361 120.211 53.1646 120.076 53.255C119.941 53.3454 119.781 53.3936 119.619 53.3936C119.51 53.3945 119.403 53.3739 119.303 53.3329C119.203 53.2918 119.111 53.2313 119.035 53.1547C118.958 53.0781 118.898 52.987 118.857 52.8868C118.816 52.7866 118.795 52.6791 118.796 52.5708Z"
        fill="#A6A6A6" />
    <path
        d="M121.38 52.5708C121.38 52.4078 121.428 52.2485 121.519 52.113C121.61 51.9775 121.739 51.8721 121.89 51.81C122.04 51.748 122.206 51.7321 122.366 51.7644C122.526 51.7967 122.672 51.8757 122.787 51.9915C122.902 52.1072 122.98 52.2545 123.011 52.4145C123.042 52.5746 123.024 52.7402 122.961 52.8904C122.898 53.0407 122.791 53.1687 122.655 53.2583C122.519 53.3479 122.359 53.395 122.196 53.3936C122.088 53.3936 121.982 53.3723 121.882 53.3309C121.783 53.2894 121.692 53.2287 121.617 53.1522C121.541 53.0757 121.481 52.985 121.44 52.8852C121.4 52.7854 121.379 52.6785 121.38 52.5708Z"
        fill="#A6A6A6" />
    <path
        d="M123.964 52.5708C123.964 52.4078 124.012 52.2485 124.103 52.113C124.194 51.9775 124.323 51.8721 124.474 51.81C124.624 51.748 124.79 51.7321 124.95 51.7644C125.11 51.7967 125.256 51.8757 125.371 51.9915C125.486 52.1072 125.564 52.2545 125.595 52.4145C125.626 52.5746 125.608 52.7402 125.545 52.8904C125.482 53.0407 125.375 53.1687 125.239 53.2583C125.103 53.3479 124.943 53.395 124.78 53.3936C124.672 53.3936 124.566 53.3723 124.466 53.3309C124.367 53.2894 124.276 53.2287 124.201 53.1522C124.125 53.0757 124.065 52.985 124.024 52.8852C123.984 52.7854 123.963 52.6785 123.964 52.5708Z"
        fill="#A6A6A6" />
    <path
        d="M126.541 52.5708C126.541 52.4081 126.589 52.249 126.68 52.1137C126.77 51.9784 126.899 51.873 127.049 51.8107C127.199 51.7484 127.365 51.7321 127.524 51.7639C127.684 51.7956 127.831 51.874 127.946 51.989C128.061 52.1041 128.139 52.2507 128.171 52.4103C128.203 52.5699 128.186 52.7354 128.124 52.8857C128.062 53.0361 127.956 53.1646 127.821 53.255C127.686 53.3454 127.527 53.3936 127.364 53.3936C127.256 53.3945 127.148 53.3739 127.048 53.3329C126.948 53.2918 126.857 53.2313 126.78 53.1547C126.704 53.0781 126.643 52.987 126.602 52.8868C126.561 52.7866 126.54 52.6791 126.541 52.5708Z"
        fill="#A6A6A6" />
    <path d="M222.387 51.4419H216.056V54.1959H222.387V51.4419Z" fill="#A6A6A6" />
    <path
        d="M222.564 54.3592H215.886V51.272H222.564V54.3592ZM216.226 54.0192H222.224V51.612H216.24L216.226 54.0192Z"
        fill="white" />
    <path d="M220.748 51.7954H216.444V53.8354H220.748V51.7954Z" fill="#A6A6A6" />
    <path d="M223.156 51.9858H222.564V53.6382H223.156V51.9858Z" fill="#A6A6A6" />
    <path
        d="M175.807 223.938L175.256 222.7L198.118 212.541H212.276L133.056 126.045H160.16V75.1265H161.52V127.405H136.143L215.363 213.901H198.41L175.807 223.938Z"
        fill="#57C7DF" />
    <path
        d="M165.437 67.1093C165.24 64.8109 163.622 62.5601 160.84 62.5601C158.059 62.5601 156.482 64.8449 156.25 67.1433C155.904 70.6861 158.29 73.9025 160.84 76.8333C163.397 73.8685 165.791 70.6521 165.437 67.1093ZM160.84 69.6593C160.343 69.6579 159.857 69.5092 159.445 69.2319C159.032 68.9547 158.71 68.5612 158.521 68.1014C158.331 67.6415 158.283 67.1359 158.38 66.6483C158.478 66.1606 158.718 65.713 159.071 65.3618C159.423 65.0106 159.871 64.7716 160.359 64.6751C160.847 64.5786 161.352 64.6288 161.812 64.8194C162.271 65.0101 162.664 65.3325 162.94 65.7462C163.216 66.1598 163.363 66.6459 163.363 67.1433C163.364 67.4745 163.299 67.8026 163.173 68.1087C163.046 68.4148 162.861 68.6929 162.626 68.9268C162.391 69.1607 162.113 69.3458 161.806 69.4715C161.5 69.5973 161.172 69.6611 160.84 69.6593Z"
        fill="#57C7DF" />
    <path d="M172.4 232.159L172.339 225.107L166.661 220.925L180.547 221.102L172.4 232.159Z"
        fill="#37474F" />
    <path
        d="M150.96 285.491L136 260.331L137.074 260.229C142.587 259.368 147.557 256.423 150.96 252.001C156.461 244.746 151.586 234.423 151.538 234.321L151.232 233.703L173.312 223.611L173.876 224.849L153.048 234.369C154.081 236.844 157.298 245.929 152.041 252.831C148.624 257.291 143.692 260.344 138.176 261.413L152.082 284.798L150.96 285.491Z"
        fill="#37474F" />
    <path
        d="M156.108 277.563C155.876 275.264 154.292 272.979 151.511 272.979C148.73 272.979 147.152 275.264 146.921 277.563C146.574 281.105 148.961 284.322 151.511 287.253C154.068 284.322 156.461 281.105 156.108 277.563ZM151.511 280.113C151.014 280.111 150.528 279.963 150.115 279.685C149.702 279.408 149.381 279.015 149.191 278.555C149.002 278.095 148.953 277.589 149.051 277.102C149.149 276.614 149.389 276.166 149.741 275.815C150.093 275.464 150.541 275.225 151.029 275.129C151.517 275.032 152.023 275.082 152.482 275.273C152.941 275.464 153.334 275.786 153.61 276.2C153.886 276.613 154.034 277.099 154.034 277.597C154.035 277.928 153.97 278.256 153.843 278.562C153.717 278.868 153.531 279.146 153.296 279.38C153.062 279.614 152.783 279.799 152.477 279.925C152.17 280.051 151.842 280.114 151.511 280.113Z"
        fill="#57C7DF" />
    <path
        d="M57.7524 115.988C59.9012 117.11 60.316 120.986 67.1432 120.748C68.1156 120.748 68.9044 120.333 69.802 120.659C71.1008 121.142 72.1344 122.182 73.2972 122.944C74.232 123.568 75.2933 123.976 76.4048 124.141C78.5463 124.396 80.7099 123.898 82.5248 122.733C83.64 122.053 84.5648 121.094 85.6596 120.346C86.7544 119.598 93.2688 118.028 94.3636 114.362C95.0436 112.03 94.9552 109.378 92.1876 105.971C91.5477 105.366 91.1106 104.577 90.9364 103.714C90.9412 102.955 91.1154 102.207 91.4464 101.524C91.8293 100.747 91.9669 99.8719 91.8408 99.0148C91.5325 98.1992 91.0363 97.4677 90.3924 96.8796C89.3724 95.6488 89.5628 93.8604 90.3924 91.664C90.7165 90.7336 90.8237 89.7415 90.7058 88.7633C90.588 87.7852 90.2482 86.8469 89.7124 86.02C89.0405 85.0687 88.2472 84.2092 87.3528 83.4632C86.1084 82.28 85.8772 81.1784 85.3128 79.5124C84.2588 76.296 82.5928 74.8544 80.6412 73.8684C78.8868 72.9776 78.948 73.3176 77.0576 73.6032C75.1488 72.4421 72.9026 71.9626 70.686 72.2432C68.646 72.5016 66.9256 73.8888 65.3684 75.208C64.0084 76.3912 62.7096 77.6628 62.6484 79.6552C62.6076 80.8044 62.8864 81.94 62.832 83.0552C62.764 84.5172 61.948 85.442 60.9756 86.36C59.5321 87.5912 58.5353 89.2644 58.14 91.12C57.8884 92.6772 59.4116 95.0844 57.6232 97.3896C56.0388 99.4296 53.2576 101.755 52.53 104.319C50.2792 112.309 55.6852 114.92 57.7524 115.988Z"
        fill="#263238" />
    <path
        d="M84.1636 120.265C87.2984 119.795 92.1128 120.38 93.7788 116.865C94.4374 116.327 94.9585 115.64 95.299 114.861C95.6395 114.081 95.7897 113.232 95.7372 112.383C95.642 110.534 94.5608 108.929 93.3708 107.623C92.6015 106.904 91.9315 106.085 91.3784 105.189C91.2015 104.491 91.072 103.783 90.9908 103.067C91.1239 102.153 91.3754 101.259 91.7388 100.409C91.7388 100.375 91.7388 100.409 91.7388 100.409C91.0588 101.85 90.4196 103.455 91.0588 105.06C91.1487 105.295 91.2578 105.523 91.3852 105.74C91.6109 106.586 91.9231 107.406 92.3168 108.188C93.3504 110.228 94.2888 112.084 94.1528 114.471C94.1248 115.268 93.9326 116.05 93.5884 116.769C92.2331 117.958 90.5402 118.692 88.7468 118.871C88.706 118.871 88.6992 118.952 88.7468 118.945C90.3694 118.781 91.9257 118.215 93.2756 117.3C91.4532 119.904 87.2304 119.557 84.1704 120.156C84.0684 120.176 84.1024 120.278 84.1636 120.265ZM94.0168 116.28V116.212C94.5517 114.286 94.4125 112.234 93.6224 110.398C93.126 109.181 92.3848 108.086 91.8952 106.862C91.8136 106.651 91.732 106.433 91.664 106.223C92.344 107.175 93.3096 107.97 93.9896 108.902C95.4856 110.942 95.9208 113.356 94.5336 115.552C94.3776 115.806 94.205 116.049 94.0168 116.28Z"
        fill="#263238" />
    <path
        d="M51 112.2C51.0408 112.268 51.136 112.2 51.102 112.139C49.742 109.84 50.15 107.481 51.2108 105.373C50.7008 108.521 51.3196 112.05 54.2028 113.743C54.2504 113.743 54.2912 113.696 54.2436 113.669C51.2652 111.88 50.8436 107.807 51.6188 104.625C52.2788 103.538 53.0515 102.524 53.924 101.599C55.284 100.13 56.9976 98.6746 58.004 96.8386C57.7968 97.9038 57.1944 98.8512 56.3176 99.4906C56.2632 99.5314 56.3176 99.6198 56.3652 99.5858C57.3147 98.9461 57.9931 97.9769 58.2692 96.8658C58.3128 96.6416 58.3378 96.4142 58.344 96.1858C58.602 95.5956 58.7694 94.9697 58.8404 94.3294C58.7588 94.901 58.601 95.459 58.3712 95.9886C58.2524 94.9986 58.0243 94.0248 57.6912 93.085C56.9568 90.365 58.3304 88.7398 60.0236 87.2778C60.1596 87.1894 60.2956 87.101 60.4384 87.0194C61.3631 86.5366 62.1424 85.816 62.696 84.9318C62.8116 84.8094 62.9272 84.687 63.036 84.5578C63.036 84.5578 62.8524 84.7414 62.764 84.8298C62.8842 84.5774 62.9777 84.313 63.0428 84.041C62.8635 84.5007 62.6032 84.9244 62.2744 85.2922C61.5944 85.8566 60.8532 86.3734 60.1392 86.9174C58.7792 87.7334 57.4668 88.5086 56.95 90.1338C56.4332 91.759 56.8412 93.3434 56.95 94.8938C57.1404 97.3282 56.27 99.3614 54.0532 100.334C54.0532 100.334 54.0124 100.388 54.0532 100.375C54.222 100.328 54.3877 100.271 54.5496 100.205C53.1866 101.193 52.1439 102.559 51.5508 104.135C50.0004 106.522 49.3476 109.609 51 112.2ZM56.678 98.5046L55.93 99.0826C56.2833 98.6681 56.5596 98.1936 56.746 97.6818C57.358 95.9546 56.848 94.0778 56.8072 92.303C56.7466 91.5584 56.8671 90.8102 57.1584 90.1222C57.4497 89.4342 57.9031 88.827 58.48 88.3522C57.9724 88.9203 57.5922 89.5904 57.3648 90.3174C56.9772 91.6298 57.3648 92.847 57.7592 94.105C58.022 94.8973 58.1215 95.7348 58.0516 96.5666C57.6632 97.2549 57.2027 97.9 56.678 98.491V98.5046ZM52.0948 103.265C52.8683 101.871 53.9356 100.662 55.2228 99.7218L55.4812 99.5042C55.8348 99.2186 56.1612 98.933 56.5284 98.6406C55.08 100.266 53.3188 101.687 52.0948 103.278V103.265Z"
        fill="#263238" />
    <path
        d="M86.9448 83.0146C88.1132 84.0301 89.2255 85.1083 90.2768 86.2446C91.0118 86.9862 91.4517 87.97 91.5144 89.0122C91.5433 90.0632 91.2122 91.0925 90.576 91.9294C90.338 92.283 90.1068 92.6434 89.896 93.0106C89.8468 93.6899 89.9538 94.3715 90.2088 95.0031C90.7188 96.2067 91.8544 96.9478 92.3848 98.165C93.2348 100.137 92.2896 101.755 91.46 103.523C92.0584 102.082 92.9016 100.654 92.4392 99.0218C92.0584 97.6618 91.0792 96.9818 90.3448 95.8735C89.8946 95.1846 89.645 94.3841 89.624 93.5614C88.944 94.9214 88.74 96.2814 89.896 97.6822C89.9504 97.7502 89.896 97.8386 89.8144 97.7774C88.3456 96.2882 88.7332 94.4862 89.6308 92.9154C89.6865 91.9824 89.8908 91.0641 90.236 90.1954C90.2768 90.107 90.406 90.1955 90.3856 90.2635C90.2564 90.9435 90.0864 91.6235 89.9912 92.3035L90.1408 92.079C91.3172 90.4062 91.766 88.4614 90.4264 86.639C89.42 85.279 88.0464 84.2522 86.9244 83.0214C86.9303 83.017 86.9374 83.0146 86.9448 83.0146Z"
        fill="#263238" />
    <path
        d="M125.698 316.2C124.141 316.69 78.5944 315.704 76.9352 314.596C76.296 314.181 80.1924 271.042 80.1924 271.042L109.079 271.592L105.794 300.452C105.794 300.452 122.597 308.414 124.304 309.829C126.011 311.243 127.262 315.711 125.698 316.2Z"
        fill="#AD6359" />
    <path
        d="M125.698 316.2C124.141 316.683 78.5944 315.704 76.9352 314.589C76.7312 314.466 76.67 310.087 77.3976 304.389C85.6528 305.749 115.138 310.298 117.429 308.945C119.027 308.006 117.613 306.537 116.3 305.545C120.068 307.421 123.576 309.23 124.304 309.835C125.99 311.229 127.255 315.711 125.698 316.2Z"
        fill="#263238" />
    <path
        d="M106.61 293.529L78.2544 293.128C78.2544 293.128 83.8712 225.209 83.6332 223.904C83.3408 222.231 63.2332 143.344 63.2332 143.344H90.2972C90.2972 143.344 111.636 216.873 112.404 223.958C113.628 235.396 106.61 293.529 106.61 293.529Z"
        fill="#37474F" />
    <path
        d="M80.8044 286.722C82.4772 286.606 84.2044 286.627 85.85 286.599C87.4956 286.572 89.216 286.599 90.8956 286.599C94.2956 286.633 97.6208 286.681 100.98 286.776C101.905 286.776 102.823 286.831 103.741 286.871C104.659 286.912 105.706 287.089 106.685 287.123C106.76 287.123 106.76 287.245 106.685 287.245C105.856 287.245 105.033 287.375 104.203 287.395C103.374 287.416 102.49 287.429 101.633 287.429C99.9532 287.429 98.2328 287.429 96.5872 287.429C93.228 287.429 89.862 287.354 86.5028 287.218C84.6056 287.137 82.688 287.116 80.7976 286.926C80.7705 286.925 80.7449 286.913 80.7264 286.894C80.7079 286.874 80.6981 286.848 80.699 286.82C80.6999 286.793 80.7115 286.768 80.7312 286.749C80.751 286.731 80.7773 286.721 80.8044 286.722Z"
        fill="#263238" />
    <path
        d="M69.1696 149.716C71.5904 158.291 73.8072 166.94 75.9696 175.556C78.132 184.171 80.3012 192.855 82.4568 201.505L85.68 214.513C86.7272 218.722 87.9444 222.959 88.2096 227.311C88.4748 231.663 87.9104 236.191 87.5296 240.598C87.1488 245.004 86.7816 249.438 86.394 253.878C85.6188 262.718 84.8776 271.599 83.912 280.439C83.7896 281.547 83.674 282.656 83.5584 283.757C83.5584 283.853 83.402 283.853 83.4088 283.757C84.0004 274.917 84.6124 266.037 85.3196 257.183C85.6732 252.758 86.0336 248.329 86.4008 243.896C86.7612 239.476 87.278 235.056 87.414 230.609C87.55 226.161 86.734 221.85 85.6596 217.532C84.5852 213.214 83.538 209.066 82.4772 204.83C80.3148 196.185 78.1547 187.535 75.9968 178.881C73.5964 169.198 71.196 159.487 69.0744 149.736C69.0717 149.723 69.0741 149.71 69.0811 149.699C69.0881 149.689 69.0992 149.681 69.1118 149.678C69.1244 149.676 69.1376 149.678 69.1484 149.685C69.1593 149.692 69.1669 149.703 69.1696 149.716Z"
        fill="#263238" />
    <path d="M63.24 143.344C63.24 143.344 71.8692 177.188 77.9076 201.015L89.4268 143.344H63.24Z"
        fill="#263238" />
    <path
        d="M91.6912 316.295C90.1272 316.785 44.5876 315.799 42.9216 314.691C42.2824 314.283 44.6624 271.116 44.6624 271.116L73.1612 271.667L71.8012 300.553C71.8012 300.553 88.6108 308.509 90.3108 309.924C92.0108 311.338 93.2484 315.819 91.6912 316.295Z"
        fill="#AD6359" />
    <path
        d="M91.6912 316.295C90.134 316.785 44.5808 315.799 42.9216 314.69C42.7176 314.561 42.7652 310.297 42.9216 304.49C51.1768 305.85 81.1172 310.406 83.4088 309.053C85.0136 308.115 83.5924 306.639 82.2868 305.653C86.0472 307.53 89.556 309.332 90.2836 309.937C91.9768 311.331 93.2484 315.819 91.6912 316.295Z"
        fill="#263238" />
    <path
        d="M89.4064 143.337C89.4064 143.337 88.6176 156.257 85.5304 166.491C85.2788 167.335 85.0136 168.171 84.7212 168.967C81.992 170.028 79.3653 171.337 76.874 172.877C76.874 172.877 74.9224 222.374 74.9564 225.447C75.0856 236.946 72.148 292.958 72.148 292.958L43.588 292.686C43.588 292.686 46.5528 229.344 46.5664 225.135C46.5664 221.055 48.5112 195.357 50.2316 173.074C50.2316 173.074 47.6884 165.954 47.974 162.364C48.654 153.646 52.564 143.324 52.564 143.324L89.4064 143.337Z"
        fill="#37474F" />
    <path
        d="M83.164 160.718C83.266 159.997 83.3748 159.283 83.4836 158.569C83.6876 157.257 83.9528 155.951 84.1636 154.646C84.6872 151.681 85.2312 148.702 85.8908 145.765C85.8908 145.697 86.0268 145.71 86.02 145.765C85.8976 146.955 85.7616 148.138 85.5984 149.314C85.4352 150.491 85.3128 151.688 85.1428 152.871C84.8164 155.21 84.4628 157.556 84.0888 159.888C83.9324 160.786 83.4088 162.398 84.6668 162.676C85.6936 162.901 86.4416 161.894 86.7476 161.051C87.0626 159.993 87.29 158.91 87.4276 157.814C87.6384 156.631 87.822 155.441 87.992 154.258C88.3592 151.665 88.7559 149.079 89.182 146.499C89.182 146.431 89.3112 146.452 89.3044 146.499C89.2502 149.15 89.0595 151.797 88.7332 154.428C88.57 155.693 88.3796 156.951 88.162 158.202C88.0365 159.408 87.7459 160.591 87.2984 161.718C87.1139 162.16 86.8209 162.549 86.4466 162.848C86.0723 163.148 85.6286 163.348 85.1564 163.431H85.0952C85.1088 163.438 85.12 163.449 85.1273 163.462C85.1346 163.476 85.1376 163.491 85.136 163.506C85.136 163.921 85.136 164.349 85.0884 164.764C85.0408 165.179 84.9592 165.594 84.8776 166.002C84.8056 166.42 84.6987 166.832 84.558 167.232C84.4944 167.427 84.4195 167.618 84.3336 167.804C84.2384 167.994 84.1092 168.144 84.0004 168.32C83.9933 168.337 83.9803 168.351 83.9638 168.359C83.9473 168.367 83.9285 168.368 83.9109 168.363C83.8934 168.358 83.8782 168.347 83.8684 168.332C83.8586 168.316 83.8547 168.298 83.8576 168.28C83.8576 168.212 83.8576 168.144 83.8576 168.076V168.035C83.8508 167.912 83.8508 167.79 83.8576 167.668C83.8576 167.464 83.9392 167.266 83.98 167.069C84.0684 166.668 84.1772 166.274 84.286 165.879C84.3948 165.485 84.4764 165.084 84.5784 164.689C84.6804 164.295 84.8164 163.88 84.9116 163.472C84.9084 163.459 84.9084 163.445 84.9116 163.431C84.5318 163.45 84.1553 163.352 83.833 163.15C83.5107 162.948 83.2582 162.652 83.1096 162.302C82.9941 161.778 83.0128 161.233 83.164 160.718Z"
        fill="#263238" />
    <path
        d="M74.562 173.863C75.413 173.206 76.3107 172.613 77.248 172.088C78.2364 171.494 79.2606 170.963 80.3148 170.497C82.3548 169.599 84.5172 168.987 86.6524 168.28C86.7136 168.28 86.7612 168.368 86.6932 168.389C84.6532 169.211 82.6472 170.306 80.648 171.285C79.6688 171.761 78.6692 172.224 77.6696 172.645C76.67 173.067 75.6704 173.604 74.6368 174.005C74.562 174.033 74.5008 173.91 74.562 173.863Z"
        fill="#263238" />
    <path
        d="M58.4188 155.835C59.8747 155.821 61.323 155.625 62.73 155.251C63.41 155.087 64.022 154.877 64.6544 154.673C65.286 154.496 65.8772 154.198 66.3952 153.795C67.3744 152.952 67.83 151.619 68.2584 150.443C68.7226 149.109 69.0996 147.746 69.3872 146.363C69.3872 146.295 69.5028 146.315 69.5028 146.363C69.5365 147.925 69.3394 149.483 68.918 150.987C68.5644 152.265 68.0952 153.707 67.0616 154.591C65.9145 155.449 64.5406 155.95 63.1108 156.033C61.5482 156.214 59.9687 156.191 58.412 155.965C58.401 155.957 58.3921 155.948 58.3862 155.936C58.3803 155.924 58.3775 155.911 58.3782 155.898C58.3789 155.885 58.383 155.872 58.3901 155.861C58.3973 155.85 58.4072 155.841 58.4188 155.835Z"
        fill="#263238" />
    <path
        d="M44.8188 287.144C46.4916 287.021 48.2188 287.042 49.8644 287.021C51.51 287.001 53.2644 287.021 54.91 287.021C58.2783 287.048 61.642 287.107 65.0012 287.198C65.9192 287.198 66.8372 287.252 67.7212 287.293C68.6052 287.334 69.6864 287.504 70.6656 287.545C70.6748 287.542 70.6847 287.541 70.6944 287.542C70.704 287.543 70.7132 287.547 70.7212 287.553C70.7291 287.558 70.7356 287.566 70.7401 287.575C70.7446 287.583 70.7469 287.593 70.7469 287.603C70.7469 287.612 70.7446 287.622 70.7401 287.631C70.7356 287.639 70.7291 287.647 70.7212 287.653C70.7132 287.658 70.704 287.662 70.6944 287.663C70.6847 287.665 70.6748 287.664 70.6656 287.66C69.8428 287.66 69.0132 287.796 68.1836 287.817C67.354 287.837 66.47 287.851 65.6132 287.851H60.5676C57.2084 287.851 53.8424 287.776 50.4832 287.633C48.586 287.558 46.6684 287.531 44.778 287.348C44.751 287.342 44.7272 287.326 44.7119 287.303C44.6966 287.28 44.691 287.252 44.6964 287.225C44.7018 287.198 44.7178 287.174 44.7407 287.159C44.7637 287.144 44.7918 287.138 44.8188 287.144Z"
        fill="#263238" />
    <path
        d="M48.28 283.424C48.2347 283.422 48.1902 283.411 48.1492 283.392C48.1081 283.373 48.0713 283.346 48.0409 283.312C48.0105 283.279 47.9871 283.24 47.9721 283.197C47.9571 283.154 47.9508 283.109 47.9536 283.063L54.4068 172.223C54.3252 171.741 52.5028 165.546 52.3668 162.384C52.1968 159.045 55.658 146.016 55.7668 145.459C55.7922 145.37 55.8512 145.295 55.9312 145.249C56.0112 145.204 56.1059 145.191 56.1952 145.214C56.2395 145.226 56.2811 145.246 56.3175 145.274C56.3538 145.302 56.3843 145.337 56.4071 145.377C56.4298 145.417 56.4445 145.461 56.4501 145.506C56.4558 145.552 56.4523 145.598 56.44 145.642C56.44 145.771 52.8632 159.113 53.04 162.35C53.2168 165.587 55.08 172.094 55.08 172.149C55.08 172.203 48.6268 283.098 48.6268 283.098C48.62 283.185 48.5807 283.267 48.5166 283.328C48.4524 283.388 48.368 283.422 48.28 283.424Z"
        fill="#263238" />
    <path
        d="M80.5664 104.72C94.52 116.994 107.44 130.485 108.548 137.435C110.044 147.05 104.149 149.791 101.497 149.845C94.2684 149.995 80.8044 120.85 76.1124 109.725C71.5564 98.9062 77.52 102 80.5664 104.72Z"
        fill="#57C7DF" />
    <path
        d="M90.1204 143.337L88.1756 131.097C88.1756 131.097 93.0104 126.085 90.5148 120.843C89.25 118.184 80.648 105.203 76.058 101.966C71.7536 98.9126 66.6468 101.449 64.7292 104.754C59.908 113.097 55.318 122.685 52.53 143.33L90.1204 143.337Z"
        fill="#57C7DF" />
    <path
        d="M82.4364 129.533C80.4837 129.746 78.5495 130.103 76.6496 130.601C75.7044 130.866 74.7864 131.165 73.8616 131.492C73.406 131.655 72.9436 131.798 72.5016 131.941C72.02 132.106 71.5198 132.211 71.0124 132.253C71.0034 132.253 70.9947 132.257 70.9884 132.263C70.982 132.27 70.9784 132.278 70.9784 132.287C70.9784 132.296 70.982 132.305 70.9884 132.312C70.9947 132.318 71.0034 132.321 71.0124 132.321C71.4913 132.337 71.9708 132.319 72.4472 132.267C72.9069 132.205 73.3615 132.11 73.8072 131.981C74.766 131.73 75.7044 131.424 76.6632 131.159C78.5876 130.628 80.512 130.091 82.4704 129.697C82.492 129.692 82.511 129.679 82.5231 129.661C82.5352 129.642 82.5395 129.62 82.535 129.598C82.5305 129.576 82.5176 129.557 82.4991 129.545C82.4806 129.533 82.458 129.529 82.4364 129.533Z"
        fill="#263238" />
    <path
        d="M87.312 131.172C85.6954 131.032 84.0719 130.986 82.45 131.036C81.6408 131.036 80.8384 131.131 80.0292 131.227L78.88 131.376C78.4584 131.444 78.0436 131.56 77.622 131.614C77.5812 131.614 77.5812 131.689 77.622 131.689C78.0232 131.648 78.4312 131.689 78.8324 131.689L80.0428 131.628L82.4704 131.526C84.082 131.437 85.6936 131.369 87.312 131.335C87.3336 131.335 87.3544 131.327 87.3697 131.311C87.385 131.296 87.3936 131.275 87.3936 131.254C87.3936 131.232 87.385 131.211 87.3697 131.196C87.3544 131.181 87.3336 131.172 87.312 131.172Z"
        fill="#263238" />
    <path
        d="M64.2396 103.503C51.2584 113.703 38.4948 131.335 38.3996 141.189C38.3112 150.919 41.6976 149.981 42.6632 149.913C48.5384 149.532 62.3832 122.448 66.5992 111.405C70.8152 100.361 67.4492 100.98 64.2396 103.503Z"
        fill="#57C7DF" />
    <path
        d="M50.4764 142.311C51.1564 141.087 51.8364 139.876 52.5164 138.639L54.5564 134.953C55.9164 132.498 57.2764 130.043 58.548 127.561C59.8196 125.079 61.1796 122.625 62.4648 120.136C63.113 118.894 63.7409 117.643 64.3484 116.382C64.9808 115.131 65.5588 113.859 66.1504 112.588C65.2167 115.236 64.1384 117.831 62.9204 120.36C61.7304 122.903 60.4316 125.392 59.1328 127.874C57.834 130.356 56.4128 132.797 54.9984 135.205C53.584 137.612 52.088 140.012 50.4764 142.311Z"
        fill="#263238" />
    <path
        d="M64.7632 115.852C65.002 115.41 65.27 114.986 65.5656 114.58C65.7152 114.376 65.8512 114.172 66.0076 113.982C66.1562 113.777 66.3151 113.579 66.4836 113.39C66.3611 113.881 66.144 114.343 65.8444 114.75C65.5553 115.181 65.1887 115.555 64.7632 115.852Z"
        fill="#263238" />
    <path
        d="M104.482 123.182C103.802 118.619 102.442 112.248 100.783 110.942C99.1236 109.636 92.7656 104.938 90.9636 104.332C89.1616 103.727 81.0968 100.762 79.628 101.612C78.4584 102.292 79.8932 105.393 83.708 106.842C85.7878 107.678 87.8156 108.639 89.7804 109.718C90.7664 110.126 93.1804 113.274 92.5004 114.682C92.1332 115.512 89.7328 116.511 88.23 115.852C86.7272 115.192 86.326 112.234 84.6056 110.854C82.8852 109.473 79.8456 109.677 79.7028 110.493C79.56 111.309 80.5392 111.683 82.11 114.43C83.1232 116.198 83.232 120.469 85.51 123.502C86.6779 125.3 87.7339 127.169 88.672 129.098L104.482 123.182Z"
        fill="#AD6359" />
    <path
        d="M83.0416 109.616C82.4866 109.535 81.9657 109.3 81.5388 108.936C81.3699 108.77 81.2499 108.561 81.192 108.331C81.175 108.204 81.175 108.076 81.192 107.95C81.1957 107.815 81.2462 107.685 81.3348 107.583C81.3348 107.522 81.3348 107.583 81.3348 107.583C81.2933 107.647 81.2479 107.708 81.1988 107.766C81.1627 107.819 81.133 107.876 81.1104 107.936C81.0697 108.057 81.049 108.183 81.0492 108.31C81.0661 108.592 81.1762 108.86 81.362 109.072C81.5828 109.298 81.8531 109.47 82.1517 109.574C82.4503 109.678 82.7689 109.711 83.0824 109.67C83.0824 109.67 83.0688 109.623 83.0416 109.616Z"
        fill="#263238" />
    <path
        d="M100.783 110.928C99.3072 108.657 95.54 104.584 91.8408 103.204C89.3384 102.279 80.8044 106.542 81.0764 108.181C81.3484 109.82 82.8036 109.806 84.9728 109.541C85.7616 109.439 89.9232 107.889 90.644 108.759C91.6844 110.01 93.0308 114.301 93.0308 114.301L100.783 110.928Z"
        fill="#AD6359" />
    <path
        d="M81.2804 107.535C82.3208 105.774 84.6396 104.815 86.9516 104.047C86.9516 104.047 87.006 104.088 86.9516 104.101C86.36 104.298 82.6064 106.073 81.2872 107.562C81.294 107.583 81.2668 107.556 81.2804 107.535Z"
        fill="#263238" />
    <path
        d="M100.783 110.928C99.3072 108.657 95.54 104.584 91.8408 103.204C89.3384 102.279 82.6132 107.692 82.8784 109.324C83.1436 110.956 85.2516 111.064 87.5704 110.235C88.3184 109.963 90.8208 108.161 91.5416 109.031C92.5752 110.282 95.1048 113.383 95.1048 113.383L100.783 110.928Z"
        fill="#AD6359" />
    <path
        d="M93.6428 111.466C93.4116 111.112 93.33 110.983 93.0852 110.629C92.8404 110.276 92.5888 109.949 92.3236 109.596C92.1138 109.285 91.8515 109.014 91.5484 108.793C91.235 108.616 90.8709 108.549 90.5148 108.603C89.716 108.777 88.9629 109.118 88.3048 109.603C87.2404 110.273 86.013 110.64 84.7552 110.663C84.4219 110.645 84.0958 110.559 83.7964 110.412C83.5703 110.311 83.3719 110.157 83.2184 109.963C82.6812 109.072 83.3272 108.045 83.9936 107.318C85.303 105.995 86.8422 104.921 88.536 104.149L89.7396 103.564C90.1932 103.318 90.6937 103.169 91.2084 103.129C92.0516 103.129 93.4388 103.959 93.874 104.21C93.874 104.21 93.9284 104.176 93.874 104.156C93.3572 103.843 92.0584 102.796 90.6984 102.884C90.2036 102.965 89.727 103.133 89.2908 103.381C88.8148 103.585 88.3524 103.816 87.89 104.061C86.992 104.515 86.1304 105.038 85.3128 105.625C84.494 106.169 83.7838 106.86 83.2184 107.665C82.9796 108.02 82.8421 108.434 82.8206 108.861C82.799 109.289 82.8942 109.715 83.096 110.092C83.2782 110.329 83.5103 110.524 83.7759 110.661C84.0414 110.798 84.334 110.876 84.6328 110.888C84.9894 110.935 85.3506 110.935 85.7072 110.888C86.4955 110.717 87.2704 110.49 88.026 110.208C88.7604 109.909 89.42 109.405 90.1816 109.167C90.3599 109.103 90.5493 109.075 90.7386 109.086C90.9279 109.096 91.1132 109.145 91.2832 109.229C91.5939 109.435 91.8733 109.684 92.1128 109.97C92.6143 110.464 93.0695 111.004 93.4728 111.581C93.636 111.67 93.7448 111.615 93.6428 111.466Z"
        fill="#263238" />
    <path
        d="M101.884 112.88C101.34 111.799 100.388 107.331 99.5112 105.971C98.634 104.611 94.6356 99.8991 92.7996 100.123C90.4876 100.402 92.9424 104.55 94.1596 106.243C95.3768 107.937 95.2136 110.874 95.2136 110.874L101.884 112.88Z"
        fill="#AD6359" />
    <path
        d="M92.48 103.455C92.9104 104.008 93.3121 104.582 93.6836 105.176C94.0745 105.714 94.4268 106.28 94.7376 106.869C94.9999 107.482 95.1563 108.135 95.2 108.8C95.234 109.126 95.2476 109.48 95.2544 109.772C95.2612 110.065 95.2544 110.452 95.2544 110.833C95.2544 110.867 95.1932 110.874 95.1932 110.833C95.1426 110.189 95.0518 109.549 94.9212 108.916C94.7994 108.259 94.5985 107.62 94.3228 107.012C93.7652 105.808 92.9628 104.734 92.3984 103.53C92.3508 103.448 92.4188 103.414 92.48 103.455Z"
        fill="#263238" />
    <path
        d="M95.2 111.404C95.2908 112.522 95.0991 113.644 94.6424 114.668C94.433 115.187 94.19 115.691 93.9148 116.178C93.6261 116.649 93.3105 117.103 92.9696 117.538C91.5992 119.207 90.7292 121.23 90.4604 123.372C90.3675 122.261 90.4946 121.143 90.8344 120.081C91.1946 119.017 91.7326 118.021 92.4256 117.137C93.0873 116.292 93.6594 115.38 94.1324 114.417C94.6515 113.478 95.0122 112.46 95.2 111.404Z"
        fill="#263238" />
    <path
        d="M100.824 149.512C96.3084 148.9 93.3436 141.352 88.2028 128.078C87.2984 125.746 99.0828 111.425 100.701 113.56C102.741 116.28 108.181 131.24 108.732 135.32C109.861 143.385 106.08 150.219 100.824 149.512Z"
        fill="#AD6359" />
    <path
        d="M90.9296 135.483L105.475 121.346C105.475 121.346 109.609 133.511 109.222 138.611C108.834 143.711 107.059 149.491 100.919 149.845C96.322 150.083 90.9296 135.483 90.9296 135.483Z"
        fill="#57C7DF" />
    <path
        d="M95.6284 145.269C95.1048 144.527 94.6356 143.745 94.18 142.963C93.7244 142.181 93.3028 141.372 92.888 140.563C92.4732 139.754 92.106 138.931 91.766 138.081C91.412 137.241 91.1321 136.372 90.9296 135.483C91.3104 136.306 91.7184 137.115 92.1264 137.918L93.3504 140.339C93.7448 141.148 94.146 141.957 94.5268 142.78C94.9076 143.603 95.2884 144.425 95.6284 145.269Z"
        fill="#263238" />
    <path
        d="M94.0576 137.951C94.7376 137.176 95.54 136.455 96.288 135.721C97.036 134.987 97.7976 134.266 98.566 133.552C100.103 132.115 101.649 130.696 103.204 129.295C103.632 128.914 104.06 128.527 104.496 128.153C104.931 127.779 105.475 127.405 105.93 127.004C105.938 127 105.947 126.999 105.955 127C105.963 127.002 105.971 127.006 105.977 127.011C105.983 127.017 105.987 127.025 105.988 127.033C105.99 127.042 105.988 127.05 105.985 127.058C105.611 127.412 105.305 127.826 104.924 128.194C104.543 128.561 104.162 128.942 103.775 129.309L101.49 131.471C99.9532 132.899 98.4164 134.327 96.8388 135.708C95.948 136.49 95.0708 137.299 94.1188 138.026C94.1091 138.028 94.0989 138.028 94.0895 138.024C94.0801 138.021 94.0718 138.015 94.0655 138.008C94.0591 138 94.0551 137.99 94.0537 137.981C94.0523 137.971 94.0537 137.961 94.0576 137.951Z"
        fill="#263238" />
    <path
        d="M67.4832 101.939C67.4832 101.939 70.1216 108.651 70.992 109.419C71.8624 110.187 79.2676 109.759 79.4308 109.147C79.594 108.535 76.3096 102.429 76.3096 102.429C74.6918 101.659 72.9521 101.178 71.1688 101.007C69.87 100.888 68.5693 101.217 67.4832 101.939Z"
        fill="#AD6359" />
    <path
        d="M68.102 102.381C68.2108 103.129 71.2776 108.229 75.3372 107.977C77.7036 107.834 76.092 103.122 76.092 103.122L78.132 96.6824L70.3392 90.7256C70.3392 90.7256 68.0612 102.068 68.102 102.381Z"
        fill="#AD6359" />
    <path
        d="M69.5096 94.962C70.032 96.6525 70.8961 98.2177 72.0482 99.5605C73.2004 100.903 74.6161 101.995 76.2076 102.768L78.1388 96.6824L70.346 90.7256C70.346 90.7256 69.9652 92.6432 69.5096 94.962Z"
        fill="#263238" />
    <path
        d="M87.3188 87.6316C87.55 98.702 80.9472 100.089 78.5604 100.137C76.3912 100.184 69.0404 100.048 67.6328 89.0597C66.2252 78.0709 71.332 74.4669 76.2824 74.0997C81.2328 73.7325 87.0876 76.5544 87.3188 87.6316Z"
        fill="#AD6359" />
    <path
        d="M84.7212 86.7406C84.4729 86.6829 84.2278 86.6126 83.9868 86.5298C83.7272 86.4859 83.4888 86.3595 83.3068 86.1694C83.26 86.0955 83.2387 86.0083 83.2461 85.9212C83.2534 85.834 83.2891 85.7517 83.3476 85.6866C83.4814 85.577 83.6419 85.5047 83.8127 85.4773C83.9835 85.4498 84.1585 85.4681 84.32 85.5302C84.6697 85.6088 84.9776 85.8149 85.1836 86.1082C85.2284 86.1797 85.2508 86.263 85.2478 86.3473C85.2449 86.4316 85.2166 86.5131 85.1668 86.5812C85.117 86.6494 85.0479 86.701 84.9685 86.7294C84.889 86.7578 84.8029 86.7617 84.7212 86.7406Z"
        fill="#263238" />
    <path
        d="M77.1392 86.4006C77.3928 86.3834 77.6449 86.3493 77.894 86.2986C78.1665 86.3006 78.432 86.2121 78.6488 86.047C78.7017 85.979 78.7304 85.8952 78.7304 85.809C78.7304 85.7228 78.7017 85.6391 78.6488 85.571C78.5325 85.441 78.3835 85.3446 78.2172 85.2919C78.0509 85.2393 77.8735 85.2323 77.7036 85.2718C77.3774 85.3047 77.0725 85.4487 76.84 85.6798C76.7806 85.7388 76.7401 85.8141 76.7236 85.8962C76.7072 85.9783 76.7155 86.0634 76.7476 86.1407C76.7797 86.218 76.8341 86.284 76.9038 86.3303C76.9735 86.3766 77.0555 86.4011 77.1392 86.4006Z"
        fill="#263238" />
    <path
        d="M78.5128 89.311C78.5128 89.311 78.4516 89.311 78.4516 89.3722C78.4516 90.127 78.2884 90.9906 77.5948 91.2082V91.249C78.438 91.1742 78.6148 90.0318 78.5128 89.311Z"
        fill="#263238" />
    <path
        d="M77.8804 88.4886C76.67 88.339 76.4524 90.7598 77.5676 90.9026C78.6828 91.0454 78.88 88.6178 77.8804 88.4886Z"
        fill="#263238" />
    <path
        d="M77.3908 88.5766C77.1664 88.6922 76.9352 88.9166 76.7108 88.9166C76.4864 88.9166 76.2144 88.6446 76.0308 88.3862C76.0308 88.3862 75.99 88.3862 75.9832 88.3862C75.9356 88.8486 76.0716 89.3382 76.5612 89.4538C77.0508 89.5694 77.3772 89.175 77.5336 88.7194C77.52 88.665 77.4792 88.529 77.3908 88.5766Z"
        fill="#263238" />
    <path
        d="M83.062 89.3862C83.062 89.3862 83.1164 89.427 83.1164 89.461C83.0144 90.209 83.028 91.0794 83.6876 91.399C83.6876 91.399 83.6876 91.4466 83.6876 91.4398C82.858 91.2426 82.8512 90.0798 83.062 89.3862Z"
        fill="#263238" />
    <path
        d="M83.81 88.6721C85.0272 88.6721 84.8844 91.1269 83.7556 91.0997C82.6268 91.0725 82.79 88.6449 83.81 88.6721Z"
        fill="#263238" />
    <path
        d="M84.32 88.8625C84.5036 88.9985 84.6804 89.2433 84.9116 89.2705C85.1428 89.2977 85.3876 89.0529 85.5916 88.8149C85.5916 88.8149 85.6324 88.8149 85.6256 88.8149C85.6256 89.2773 85.4352 89.7533 84.9456 89.8145C84.456 89.8757 84.2656 89.4609 84.1772 88.9917C84.1568 88.9305 84.2316 88.8013 84.32 88.8625Z"
        fill="#263238" />
    <path
        d="M81.8584 92.6298C81.8584 92.6298 81.9196 93.7654 81.8584 94.2958C81.8584 94.3434 81.7292 94.357 81.5456 94.357C81.0841 94.402 80.619 94.32 80.2007 94.1199C79.7825 93.9197 79.4269 93.609 79.1724 93.2214C79.1384 93.167 79.2132 93.1194 79.2608 93.1534C79.8975 93.6704 80.6851 93.9664 81.5048 93.9966C81.5524 93.8538 81.328 92.0518 81.4096 92.0518C81.818 92.1235 82.2156 92.2469 82.5928 92.419C82.518 90.0526 82.0692 87.7134 82.0352 85.3538C82.04 85.3386 82.0494 85.3253 82.0623 85.3158C82.0751 85.3064 82.0907 85.3013 82.1066 85.3013C82.1225 85.3013 82.1381 85.3064 82.1509 85.3158C82.1638 85.3253 82.1732 85.3386 82.178 85.3538C82.7351 87.8445 83.0449 90.3842 83.1028 92.9358C83.1164 93.2214 82.0624 92.7386 81.8584 92.6298Z"
        fill="#263238" />
    <path
        d="M81.2328 94.044C80.9359 94.4025 80.5519 94.6788 80.1176 94.8464C79.8745 94.925 79.6128 94.925 79.3696 94.8464C78.8392 94.69 78.8392 94.1664 78.9548 93.772C79.0194 93.552 79.1083 93.3399 79.22 93.1396C79.7762 93.6497 80.4821 93.9669 81.2328 94.044Z"
        fill="#263238" />
    <path
        d="M80.1176 94.8464C79.8745 94.9249 79.6128 94.9249 79.3696 94.8464C78.8392 94.69 78.8392 94.1664 78.9548 93.772C79.2412 93.7944 79.5116 93.9126 79.7225 94.1075C79.9335 94.3024 80.0727 94.5627 80.1176 94.8464Z"
        fill="#FF9ABB" />
    <path
        d="M67.5444 89.2571C68.7684 89.2571 72.1412 86.0475 72.5492 80.1383C72.5492 80.1383 71.8148 85.4219 71.3728 86.1767C70.9308 86.9315 73.2564 84.3747 73.6576 79.6147C75.102 80.7716 76.705 81.7151 78.4176 82.4163C80.6344 83.1643 82.0148 83.2187 82.1848 83.0963C82.3548 82.9739 79.0908 81.7363 78.2544 80.6415C78.2544 80.6415 84.0956 83.7491 86.8428 84.1095C87.1624 84.1503 87.8968 77.6019 83.776 74.5895C79.6552 71.5771 72.7328 74.2223 70.856 75.8815C70.856 75.8815 68.7004 76.0719 66.2116 79.1047C63.7228 82.1375 66.2184 89.2639 67.5444 89.2571Z"
        fill="#263238" />
    <path
        d="M73.814 79.0092C73.814 78.8732 73.5964 78.8732 73.6032 79.0092C73.6425 81.1724 73.2279 83.3198 72.386 85.3128C72.386 85.3128 72.4268 85.3604 72.4404 85.3128C73.44 83.2932 74.12 81.3008 73.814 79.0092Z"
        fill="#263238" />
    <path
        d="M81.3076 83.3747C78.1184 82.8239 75.412 81.6679 73.3992 79.0499C73.3584 78.9955 73.2632 79.0499 73.304 79.1043C74.9224 81.9331 78.166 83.2319 81.294 83.4971C81.3552 83.5039 81.3756 83.3883 81.3076 83.3747Z"
        fill="#263238" />
    <path
        d="M69.5096 89.1207C69.5096 89.1207 67.3268 85.5099 65.7016 86.2715C64.0764 87.0331 65.5656 92.1467 67.3608 92.9491C67.5833 93.0687 67.8278 93.142 68.0794 93.1645C68.331 93.187 68.5845 93.1584 68.8247 93.0802C69.065 93.002 69.2868 92.876 69.477 92.7097C69.6672 92.5435 69.8217 92.3404 69.9312 92.1127L69.5096 89.1207Z"
        fill="#AD6359" />
    <path
        d="M66.164 87.7202C66.164 87.7202 66.164 87.7542 66.164 87.7678C67.422 88.373 68.0204 89.6106 68.4148 90.8822C68.3483 90.7477 68.2533 90.6294 68.1364 90.5353C68.0195 90.4412 67.8836 90.3737 67.738 90.3375C67.5924 90.3013 67.4407 90.2971 67.2933 90.3255C67.146 90.3538 67.0066 90.4138 66.8848 90.5014C66.8848 90.5014 66.8848 90.5762 66.8848 90.5694C67.1157 90.5129 67.3584 90.5289 67.5799 90.6153C67.8013 90.7017 67.9908 90.8543 68.1224 91.0522C68.339 91.3879 68.5191 91.7458 68.6596 92.1198C68.714 92.2354 68.9248 92.1878 68.8908 92.0518C69.0404 90.3926 67.9184 88.0058 66.164 87.7202Z"
        fill="#263238" />
    <path
        d="M79.1112 107.583L72.9912 126.575C72.7464 127.126 72.9912 127.609 73.5556 127.643L83.5176 128.323C83.8233 128.321 84.1221 128.231 84.3787 128.065C84.6353 127.899 84.839 127.663 84.966 127.385L91.086 108.399C91.1593 108.296 91.2025 108.175 91.2108 108.049C91.219 107.923 91.1919 107.797 91.1326 107.685C91.0733 107.574 90.9841 107.481 90.875 107.417C90.7658 107.353 90.6411 107.321 90.5148 107.325L80.5528 106.645C80.2488 106.65 79.9525 106.741 79.6977 106.907C79.4428 107.073 79.2396 107.307 79.1112 107.583Z"
        fill="#37474F" />
    <path
        d="M80.2944 107.651L74.1744 126.643C73.9296 127.194 74.1744 127.677 74.7388 127.711L84.7008 128.391C85.0062 128.387 85.3042 128.297 85.5605 128.131C85.8168 127.965 86.0209 127.73 86.1492 127.452L92.2692 108.46C92.3403 108.358 92.3818 108.238 92.3893 108.113C92.3968 107.989 92.3699 107.865 92.3117 107.755C92.2534 107.644 92.166 107.552 92.059 107.488C91.952 107.425 91.8294 107.391 91.7048 107.392L81.736 106.712C81.432 106.718 81.1357 106.809 80.8809 106.975C80.626 107.141 80.4229 107.375 80.2944 107.651Z"
        fill="#455A64" />
    <path
        d="M82.96 108.712C82.9446 108.877 82.8805 109.035 82.7758 109.164C82.671 109.294 82.5303 109.389 82.3714 109.439C82.2124 109.488 82.0424 109.49 81.8826 109.443C81.7229 109.396 81.5806 109.303 81.4738 109.175C81.3669 109.047 81.3002 108.891 81.2822 108.725C81.2641 108.56 81.2954 108.393 81.3721 108.245C81.4489 108.097 81.5677 107.976 81.7135 107.895C81.8593 107.815 82.0257 107.779 82.1916 107.794C82.3025 107.803 82.4104 107.834 82.5091 107.886C82.6079 107.937 82.6955 108.007 82.7669 108.093C82.8384 108.178 82.8922 108.276 82.9253 108.383C82.9585 108.489 82.9702 108.601 82.96 108.712Z"
        fill="#263238" />
    <path
        d="M41.31 149.892C45.662 150.491 51.0816 147.111 65.144 136.843C67.0956 135.429 60.7648 118.993 58.6024 120.408C55.8824 122.182 45.7368 129.662 45.0636 130.302C39.3856 135.708 38.3588 149.491 41.31 149.892Z"
        fill="#AD6359" />
    <path
        d="M53.584 125.379C53.584 125.379 57.5892 119.755 60.6084 117.457C63.7984 115.146 67.5015 113.643 71.4 113.077C75.6092 112.459 86.2308 113.873 86.36 117.001C86.4688 119.837 75.6908 117.844 75.6908 117.844C75.6908 117.844 87.0196 118.062 86.53 121.496C86.0404 124.93 73.6576 121.904 73.6576 121.904C73.6576 121.904 85.2924 122.393 84.2248 125.855C83.4224 128.473 72.046 126.365 72.046 126.365C72.046 126.365 82.0488 126.854 81.3348 129.581C80.546 132.593 69.9312 131.308 69.9312 131.308C66.9528 137.931 62.6824 139.801 59.5816 140.828C58.8608 141.08 53.584 125.379 53.584 125.379Z"
        fill="#AD6359" />
    <path
        d="M71.8012 117.517C73.1612 117.517 74.4804 117.463 75.8132 117.558C77.146 117.653 78.472 117.796 79.7844 118.014C81.508 118.274 83.1963 118.731 84.8164 119.374C81.8584 118.456 77.1052 118.014 75.7724 117.939C74.4396 117.864 73.1272 117.681 71.8012 117.585C71.7672 117.565 71.774 117.517 71.8012 117.517Z"
        fill="#263238" />
    <path
        d="M71.4 122.305C73.1 122.352 74.8 122.305 76.4932 122.454C78.1864 122.604 79.7776 122.835 81.4572 123.073C81.5864 123.073 81.532 123.155 81.4028 123.141C79.7164 122.971 78.1456 122.944 76.4524 122.794C74.7592 122.645 73.0524 122.434 71.3932 122.345C71.3388 122.345 71.3456 122.305 71.4 122.305Z"
        fill="#263238" />
    <path
        d="M70.2576 126.351C72.8692 126.355 75.4735 126.627 78.03 127.16C78.1592 127.16 78.0776 127.262 77.9484 127.242C75.3712 126.922 73.3516 126.65 70.2576 126.433C70.21 126.439 70.2032 126.358 70.2576 126.351Z"
        fill="#263238" />
    <path
        d="M53.584 123.141L59.16 143.337C59.16 143.337 44.2884 152.089 41.004 149.77C37.7196 147.451 39.8684 135.796 43.588 131.349C45.1044 129.499 53.584 123.141 53.584 123.141Z"
        fill="#57C7DF" />
    <path
        d="M53.7676 123.815L53.55 123.135H53.6044C52.1968 124.284 50.7892 125.419 49.402 126.575C48.0148 127.731 46.6208 128.887 45.322 130.111C44.6515 130.705 44.0201 131.341 43.4316 132.015C42.8713 132.709 42.3709 133.448 41.9356 134.225C41.0635 135.821 40.4507 137.545 40.12 139.332C40.2637 137.505 40.7578 135.723 41.5752 134.083C41.9859 133.257 42.4828 132.478 43.0576 131.757C43.6465 131.053 44.2826 130.389 44.9616 129.771C46.3216 128.547 47.6816 127.405 49.1504 126.29C50.6192 125.175 52.0608 124.121 53.5704 123.114H53.6112V123.162L53.7676 123.815Z"
        fill="#263238" />
    <path
        d="M50.32 128.153C50.66 129.145 50.9116 130.193 51.1972 131.179C51.4828 132.165 51.748 133.219 52.0064 134.218C52.5164 136.258 53.0196 138.298 53.5024 140.338C53.6316 140.896 53.7608 141.46 53.8832 142.018C54.0056 142.575 54.0668 143.235 54.196 143.833C54.196 143.838 54.1951 143.842 54.1934 143.846C54.1917 143.851 54.1892 143.854 54.186 143.858C54.1829 143.861 54.1791 143.863 54.175 143.865C54.1709 143.867 54.1664 143.867 54.162 143.867C54.1575 143.867 54.1531 143.867 54.149 143.865C54.1448 143.863 54.1411 143.861 54.1379 143.858C54.1348 143.854 54.1323 143.851 54.1306 143.846C54.1288 143.842 54.128 143.838 54.128 143.833C53.992 143.337 53.7812 142.854 53.6384 142.365C53.4956 141.875 53.346 141.331 53.21 140.814C52.9448 139.801 52.6796 138.774 52.4212 137.768C51.9044 135.728 51.3944 133.688 50.9456 131.648C50.6872 130.485 50.4016 129.329 50.2112 128.159C50.2103 128.145 50.2151 128.131 50.2247 128.12C50.2343 128.109 50.2477 128.103 50.2622 128.102C50.2766 128.101 50.2908 128.106 50.3016 128.115C50.3125 128.125 50.3191 128.138 50.32 128.153Z"
        fill="#263238" />
    <path
        d="M59.16 143.337C59.2552 143.528 59.2484 143.337 59.228 143.249C59.2076 143.16 58.9764 142.154 58.7656 141.542C58.7656 141.481 58.65 141.372 58.684 141.59C58.8103 142.18 58.9693 142.764 59.16 143.337Z"
        fill="#263238" />
</svg>
